<mxfile host="Electron" agent="Mozilla/5.0 (Windows NT 10.0; Win64; x64) AppleWebKit/537.36 (KHTML, like Gecko) draw.io/24.7.5 Chrome/126.0.6478.183 Electron/31.3.0 Safari/537.36" version="24.7.5" pages="6">
  <diagram name="As-Is Map" id="ewICvBA-AWRLPiirsOwP">
    <mxGraphModel dx="2536" dy="610" grid="1" gridSize="10" guides="1" tooltips="1" connect="1" arrows="1" fold="1" page="0" pageScale="1" pageWidth="850" pageHeight="1100" math="0" shadow="0">
      <root>
        <mxCell id="0" />
        <mxCell id="1" parent="0" />
        <mxCell id="oHCPw_4s9QUBJWi0MAOG-11" style="edgeStyle=orthogonalEdgeStyle;rounded=0;orthogonalLoop=1;jettySize=auto;html=1;entryX=0;entryY=0.5;entryDx=0;entryDy=0;" parent="1" source="oHCPw_4s9QUBJWi0MAOG-1" target="oHCPw_4s9QUBJWi0MAOG-2" edge="1">
          <mxGeometry relative="1" as="geometry" />
        </mxCell>
        <mxCell id="oHCPw_4s9QUBJWi0MAOG-1" value="Start" style="ellipse;whiteSpace=wrap;html=1;aspect=fixed;fontStyle=1;fillColor=#fff2cc;strokeColor=#d6b656;" parent="1" vertex="1">
          <mxGeometry x="-800" y="480" width="80" height="80" as="geometry" />
        </mxCell>
        <UserObject label="X.1 Project Initialization" link="data:page/id,4R7_xE3f0yoA_vOzpoqW" id="oHCPw_4s9QUBJWi0MAOG-2">
          <mxCell style="shape=process;whiteSpace=wrap;html=1;backgroundOutline=1;fillColor=#dae8fc;strokeColor=#6c8ebf;fontStyle=1" parent="1" vertex="1">
            <mxGeometry x="-640" y="490" width="120" height="60" as="geometry" />
          </mxCell>
        </UserObject>
        <mxCell id="oHCPw_4s9QUBJWi0MAOG-15" style="edgeStyle=orthogonalEdgeStyle;rounded=0;orthogonalLoop=1;jettySize=auto;html=1;exitX=1;exitY=0.5;exitDx=0;exitDy=0;entryX=0;entryY=0.5;entryDx=0;entryDy=0;" parent="1" target="oHCPw_4s9QUBJWi0MAOG-6" edge="1">
          <mxGeometry relative="1" as="geometry">
            <mxPoint x="-520.0000000000005" y="520" as="sourcePoint" />
          </mxGeometry>
        </mxCell>
        <mxCell id="oHCPw_4s9QUBJWi0MAOG-16" style="edgeStyle=orthogonalEdgeStyle;rounded=0;orthogonalLoop=1;jettySize=auto;html=1;exitX=1;exitY=0.5;exitDx=0;exitDy=0;entryX=0;entryY=0.5;entryDx=0;entryDy=0;" parent="1" source="oHCPw_4s9QUBJWi0MAOG-6" target="oHCPw_4s9QUBJWi0MAOG-7" edge="1">
          <mxGeometry relative="1" as="geometry" />
        </mxCell>
        <UserObject label="X.2 Rate movies" link="data:page/id,BvF6bPhrFpZWPiVaxX6X" id="oHCPw_4s9QUBJWi0MAOG-6">
          <mxCell style="shape=process;whiteSpace=wrap;html=1;backgroundOutline=1;fillColor=#dae8fc;strokeColor=#6c8ebf;fontStyle=1" parent="1" vertex="1">
            <mxGeometry x="-440" y="490" width="120" height="60" as="geometry" />
          </mxCell>
        </UserObject>
        <mxCell id="oHCPw_4s9QUBJWi0MAOG-17" style="edgeStyle=orthogonalEdgeStyle;rounded=0;orthogonalLoop=1;jettySize=auto;html=1;exitX=1;exitY=0.5;exitDx=0;exitDy=0;entryX=0;entryY=0.5;entryDx=0;entryDy=0;" parent="1" source="oHCPw_4s9QUBJWi0MAOG-7" target="oHCPw_4s9QUBJWi0MAOG-8" edge="1">
          <mxGeometry relative="1" as="geometry" />
        </mxCell>
        <UserObject label="X.3&amp;nbsp; Get movies info" link="data:page/id,iJSQ8ep-ab462QueFnDs" id="oHCPw_4s9QUBJWi0MAOG-7">
          <mxCell style="shape=process;whiteSpace=wrap;html=1;backgroundOutline=1;fillColor=#dae8fc;strokeColor=#6c8ebf;fontStyle=1" parent="1" vertex="1">
            <mxGeometry x="-240" y="490" width="120" height="60" as="geometry" />
          </mxCell>
        </UserObject>
        <mxCell id="oHCPw_4s9QUBJWi0MAOG-18" style="edgeStyle=orthogonalEdgeStyle;rounded=0;orthogonalLoop=1;jettySize=auto;html=1;exitX=1;exitY=0.5;exitDx=0;exitDy=0;entryX=0;entryY=0.5;entryDx=0;entryDy=0;" parent="1" source="oHCPw_4s9QUBJWi0MAOG-8" target="oHCPw_4s9QUBJWi0MAOG-9" edge="1">
          <mxGeometry relative="1" as="geometry" />
        </mxCell>
        <mxCell id="r-TGkCnnPyC3LYQ6hWW3-4" value="No" style="edgeLabel;html=1;align=center;verticalAlign=middle;resizable=0;points=[];" parent="oHCPw_4s9QUBJWi0MAOG-18" vertex="1" connectable="0">
          <mxGeometry x="0.0143" y="-1" relative="1" as="geometry">
            <mxPoint x="1" as="offset" />
          </mxGeometry>
        </mxCell>
        <mxCell id="oHCPw_4s9QUBJWi0MAOG-20" style="edgeStyle=orthogonalEdgeStyle;rounded=0;orthogonalLoop=1;jettySize=auto;html=1;exitX=0.5;exitY=0;exitDx=0;exitDy=0;entryX=0.5;entryY=0;entryDx=0;entryDy=0;" parent="1" source="oHCPw_4s9QUBJWi0MAOG-8" target="oHCPw_4s9QUBJWi0MAOG-6" edge="1">
          <mxGeometry relative="1" as="geometry">
            <Array as="points">
              <mxPoint y="440" />
              <mxPoint x="-380" y="440" />
            </Array>
          </mxGeometry>
        </mxCell>
        <mxCell id="r-TGkCnnPyC3LYQ6hWW3-3" value="Yes" style="edgeLabel;html=1;align=center;verticalAlign=middle;resizable=0;points=[];" parent="oHCPw_4s9QUBJWi0MAOG-20" vertex="1" connectable="0">
          <mxGeometry x="-0.0298" y="-3" relative="1" as="geometry">
            <mxPoint x="1" as="offset" />
          </mxGeometry>
        </mxCell>
        <mxCell id="oHCPw_4s9QUBJWi0MAOG-8" value="Are there movies left to rate?" style="rhombus;whiteSpace=wrap;html=1;fillColor=#ffe6cc;strokeColor=#d79b00;fontStyle=1" parent="1" vertex="1">
          <mxGeometry x="-40" y="480" width="80" height="80" as="geometry" />
        </mxCell>
        <mxCell id="2BgWZ6PxN8zKb_Eqvjkl-2" style="edgeStyle=orthogonalEdgeStyle;rounded=0;orthogonalLoop=1;jettySize=auto;html=1;exitX=1;exitY=0.5;exitDx=0;exitDy=0;entryX=0;entryY=0.5;entryDx=0;entryDy=0;" parent="1" source="oHCPw_4s9QUBJWi0MAOG-9" target="2BgWZ6PxN8zKb_Eqvjkl-1" edge="1">
          <mxGeometry relative="1" as="geometry" />
        </mxCell>
        <UserObject label="X.4 Send mail" link="data:page/id,xnbSBS5895ng7XGD9JNb" id="oHCPw_4s9QUBJWi0MAOG-9">
          <mxCell style="shape=process;whiteSpace=wrap;html=1;backgroundOutline=1;fillColor=#dae8fc;strokeColor=#6c8ebf;fontStyle=1" parent="1" vertex="1">
            <mxGeometry x="120" y="490" width="120" height="60" as="geometry" />
          </mxCell>
        </UserObject>
        <mxCell id="oHCPw_4s9QUBJWi0MAOG-10" value="End" style="ellipse;whiteSpace=wrap;html=1;aspect=fixed;fillColor=#fff2cc;strokeColor=#d6b656;fontStyle=1" parent="1" vertex="1">
          <mxGeometry x="520" y="480" width="80" height="80" as="geometry" />
        </mxCell>
        <mxCell id="2BgWZ6PxN8zKb_Eqvjkl-3" value="" style="edgeStyle=orthogonalEdgeStyle;rounded=0;orthogonalLoop=1;jettySize=auto;html=1;" parent="1" source="2BgWZ6PxN8zKb_Eqvjkl-1" target="oHCPw_4s9QUBJWi0MAOG-10" edge="1">
          <mxGeometry relative="1" as="geometry" />
        </mxCell>
        <UserObject label="X.5 Close application" link="data:page/id,yel6Xu-dW4zZ0-wbOYZ5" id="2BgWZ6PxN8zKb_Eqvjkl-1">
          <mxCell style="shape=process;whiteSpace=wrap;html=1;backgroundOutline=1;fillColor=#dae8fc;strokeColor=#6c8ebf;fontStyle=1" parent="1" vertex="1">
            <mxGeometry x="320" y="490" width="120" height="60" as="geometry" />
          </mxCell>
        </UserObject>
      </root>
    </mxGraphModel>
  </diagram>
  <diagram id="4R7_xE3f0yoA_vOzpoqW" name="Project Initialization">
    <mxGraphModel dx="1038" dy="609" grid="1" gridSize="10" guides="1" tooltips="1" connect="1" arrows="1" fold="1" page="1" pageScale="1" pageWidth="850" pageHeight="1100" math="0" shadow="0">
      <root>
        <mxCell id="0" />
        <mxCell id="1" parent="0" />
        <mxCell id="LN4HBpjvQmvwsWO2YL0V-1" style="edgeStyle=orthogonalEdgeStyle;rounded=0;orthogonalLoop=1;jettySize=auto;html=1;exitX=1;exitY=0.5;exitDx=0;exitDy=0;entryX=0;entryY=1;entryDx=0;entryDy=0;" parent="1" target="LN4HBpjvQmvwsWO2YL0V-21" edge="1">
          <mxGeometry relative="1" as="geometry">
            <mxPoint x="440" y="160" as="sourcePoint" />
            <Array as="points">
              <mxPoint x="500" y="160" />
              <mxPoint x="500" y="160" />
            </Array>
          </mxGeometry>
        </mxCell>
        <mxCell id="LN4HBpjvQmvwsWO2YL0V-2" style="edgeStyle=orthogonalEdgeStyle;rounded=0;orthogonalLoop=1;jettySize=auto;html=1;exitX=1;exitY=0.5;exitDx=0;exitDy=0;entryX=0;entryY=0;entryDx=0;entryDy=0;" parent="1" source="LN4HBpjvQmvwsWO2YL0V-3" target="LN4HBpjvQmvwsWO2YL0V-22" edge="1">
          <mxGeometry relative="1" as="geometry">
            <Array as="points">
              <mxPoint x="300" y="160" />
              <mxPoint x="300" y="160" />
            </Array>
          </mxGeometry>
        </mxCell>
        <UserObject label="Start" link="data:page/id,ewICvBA-AWRLPiirsOwP" id="LN4HBpjvQmvwsWO2YL0V-3">
          <mxCell style="ellipse;whiteSpace=wrap;html=1;aspect=fixed;fontStyle=1;fillColor=#fff2cc;strokeColor=#d6b656;" parent="1" vertex="1">
            <mxGeometry x="160" y="120" width="80" height="80" as="geometry" />
          </mxCell>
        </UserObject>
        <mxCell id="LN4HBpjvQmvwsWO2YL0V-4" style="edgeStyle=orthogonalEdgeStyle;rounded=0;orthogonalLoop=1;jettySize=auto;html=1;exitX=1;exitY=0;exitDx=0;exitDy=0;entryX=0;entryY=1;entryDx=0;entryDy=0;" parent="1" source="LN4HBpjvQmvwsWO2YL0V-5" target="LN4HBpjvQmvwsWO2YL0V-9" edge="1">
          <mxGeometry relative="1" as="geometry">
            <Array as="points">
              <mxPoint x="1090" y="160" />
              <mxPoint x="1090" y="160" />
            </Array>
          </mxGeometry>
        </mxCell>
        <mxCell id="LN4HBpjvQmvwsWO2YL0V-5" value="Open google" style="rounded=0;whiteSpace=wrap;html=1;fillColor=#dae8fc;strokeColor=#6c8ebf;fontStyle=1" parent="1" vertex="1">
          <mxGeometry x="920" y="160" width="120" height="60" as="geometry" />
        </mxCell>
        <mxCell id="LN4HBpjvQmvwsWO2YL0V-6" value="Google Chrome" style="rounded=0;whiteSpace=wrap;html=1;strokeColor=#0e8088;fontStyle=1;fillColor=#b0e3e6;" parent="1" vertex="1">
          <mxGeometry x="920" y="120" width="120" height="40" as="geometry" />
        </mxCell>
        <mxCell id="LN4HBpjvQmvwsWO2YL0V-7" style="edgeStyle=orthogonalEdgeStyle;rounded=0;orthogonalLoop=1;jettySize=auto;html=1;exitX=1;exitY=0;exitDx=0;exitDy=0;entryX=0;entryY=1;entryDx=0;entryDy=0;" parent="1" source="LN4HBpjvQmvwsWO2YL0V-8" target="LN4HBpjvQmvwsWO2YL0V-13" edge="1">
          <mxGeometry relative="1" as="geometry">
            <Array as="points">
              <mxPoint x="1290" y="160" />
              <mxPoint x="1290" y="160" />
            </Array>
          </mxGeometry>
        </mxCell>
        <mxCell id="LN4HBpjvQmvwsWO2YL0V-8" value="Click on search bar&lt;div&gt;&lt;br&gt;&lt;/div&gt;" style="rounded=0;whiteSpace=wrap;html=1;fillColor=#dae8fc;strokeColor=#6c8ebf;fontStyle=1" parent="1" vertex="1">
          <mxGeometry x="1120" y="160" width="120" height="60" as="geometry" />
        </mxCell>
        <mxCell id="LN4HBpjvQmvwsWO2YL0V-9" value="Google Chrome" style="rounded=0;whiteSpace=wrap;html=1;strokeColor=#0e8088;fontStyle=1;fillColor=#b0e3e6;" parent="1" vertex="1">
          <mxGeometry x="1120" y="120" width="120" height="40" as="geometry" />
        </mxCell>
        <mxCell id="LN4HBpjvQmvwsWO2YL0V-10" value="Type into search bar" style="rounded=0;whiteSpace=wrap;html=1;fillColor=#dae8fc;strokeColor=#6c8ebf;fontStyle=1" parent="1" vertex="1">
          <mxGeometry x="1320" y="160" width="120" height="60" as="geometry" />
        </mxCell>
        <mxCell id="LN4HBpjvQmvwsWO2YL0V-11" value="Input: &quot;IMDb&quot;" style="rounded=0;whiteSpace=wrap;html=1;fillColor=#d5e8d4;strokeColor=#82b366;fontStyle=1" parent="1" vertex="1">
          <mxGeometry x="1320" y="220" width="120" height="40" as="geometry" />
        </mxCell>
        <mxCell id="LN4HBpjvQmvwsWO2YL0V-12" style="edgeStyle=orthogonalEdgeStyle;rounded=0;orthogonalLoop=1;jettySize=auto;html=1;exitX=1;exitY=1;exitDx=0;exitDy=0;entryX=0;entryY=1;entryDx=0;entryDy=0;" parent="1" source="LN4HBpjvQmvwsWO2YL0V-13" target="LN4HBpjvQmvwsWO2YL0V-16" edge="1">
          <mxGeometry relative="1" as="geometry">
            <Array as="points">
              <mxPoint x="1480" y="160" />
              <mxPoint x="1480" y="160" />
            </Array>
          </mxGeometry>
        </mxCell>
        <mxCell id="LN4HBpjvQmvwsWO2YL0V-13" value="Google Chrome" style="rounded=0;whiteSpace=wrap;html=1;strokeColor=#0e8088;fontStyle=1;fillColor=#b0e3e6;" parent="1" vertex="1">
          <mxGeometry x="1320" y="120" width="120" height="40" as="geometry" />
        </mxCell>
        <mxCell id="LN4HBpjvQmvwsWO2YL0V-14" style="edgeStyle=orthogonalEdgeStyle;rounded=0;orthogonalLoop=1;jettySize=auto;html=1;exitX=1;exitY=0;exitDx=0;exitDy=0;entryX=0;entryY=1;entryDx=0;entryDy=0;" parent="1" source="LN4HBpjvQmvwsWO2YL0V-15" target="LN4HBpjvQmvwsWO2YL0V-18" edge="1">
          <mxGeometry relative="1" as="geometry">
            <Array as="points">
              <mxPoint x="1700" y="160" />
              <mxPoint x="1700" y="160" />
            </Array>
          </mxGeometry>
        </mxCell>
        <mxCell id="LN4HBpjvQmvwsWO2YL0V-15" value="Press Enter" style="rounded=0;whiteSpace=wrap;html=1;fillColor=#dae8fc;strokeColor=#6c8ebf;fontStyle=1" parent="1" vertex="1">
          <mxGeometry x="1520" y="160" width="120" height="60" as="geometry" />
        </mxCell>
        <mxCell id="LN4HBpjvQmvwsWO2YL0V-16" value="Google Chrome" style="rounded=0;whiteSpace=wrap;html=1;strokeColor=#0e8088;fontStyle=1;fillColor=#b0e3e6;" parent="1" vertex="1">
          <mxGeometry x="1520" y="120" width="120" height="40" as="geometry" />
        </mxCell>
        <mxCell id="LN4HBpjvQmvwsWO2YL0V-17" value="Click on first page" style="rounded=0;whiteSpace=wrap;html=1;fillColor=#dae8fc;strokeColor=#6c8ebf;fontStyle=1" parent="1" vertex="1">
          <mxGeometry x="1720" y="160" width="120" height="60" as="geometry" />
        </mxCell>
        <mxCell id="LN4HBpjvQmvwsWO2YL0V-28" style="edgeStyle=orthogonalEdgeStyle;rounded=0;orthogonalLoop=1;jettySize=auto;html=1;exitX=1;exitY=1;exitDx=0;exitDy=0;entryX=0;entryY=0.5;entryDx=0;entryDy=0;" parent="1" source="LN4HBpjvQmvwsWO2YL0V-18" edge="1">
          <mxGeometry relative="1" as="geometry">
            <Array as="points">
              <mxPoint x="1860" y="160" />
              <mxPoint x="1860" y="160" />
            </Array>
            <mxPoint x="1920" y="160" as="targetPoint" />
          </mxGeometry>
        </mxCell>
        <mxCell id="LN4HBpjvQmvwsWO2YL0V-18" value="Google Chrome" style="rounded=0;whiteSpace=wrap;html=1;strokeColor=#0e8088;fontStyle=1;fillColor=#b0e3e6;" parent="1" vertex="1">
          <mxGeometry x="1720" y="120" width="120" height="40" as="geometry" />
        </mxCell>
        <mxCell id="LN4HBpjvQmvwsWO2YL0V-19" value="Open Input File" style="rounded=0;whiteSpace=wrap;html=1;fillColor=#dae8fc;strokeColor=#6c8ebf;fontStyle=1" parent="1" vertex="1">
          <mxGeometry x="520" y="160" width="120" height="60" as="geometry" />
        </mxCell>
        <mxCell id="LN4HBpjvQmvwsWO2YL0V-20" style="edgeStyle=orthogonalEdgeStyle;rounded=0;orthogonalLoop=1;jettySize=auto;html=1;exitX=1;exitY=1;exitDx=0;exitDy=0;entryX=0;entryY=0;entryDx=0;entryDy=0;" parent="1" source="LN4HBpjvQmvwsWO2YL0V-21" target="LN4HBpjvQmvwsWO2YL0V-25" edge="1">
          <mxGeometry relative="1" as="geometry">
            <Array as="points">
              <mxPoint x="660" y="160" />
              <mxPoint x="660" y="160" />
            </Array>
          </mxGeometry>
        </mxCell>
        <mxCell id="LN4HBpjvQmvwsWO2YL0V-21" value="Excel" style="rounded=0;whiteSpace=wrap;html=1;strokeColor=#0e8088;fontStyle=1;fillColor=#b0e3e6;" parent="1" vertex="1">
          <mxGeometry x="520" y="120" width="120" height="40" as="geometry" />
        </mxCell>
        <mxCell id="LN4HBpjvQmvwsWO2YL0V-22" value="Create output file Movies Report" style="rounded=0;whiteSpace=wrap;html=1;fillColor=#dae8fc;strokeColor=#6c8ebf;fontStyle=1" parent="1" vertex="1">
          <mxGeometry x="320" y="160" width="120" height="60" as="geometry" />
        </mxCell>
        <mxCell id="LN4HBpjvQmvwsWO2YL0V-23" value="Excel" style="rounded=0;whiteSpace=wrap;html=1;strokeColor=#0e8088;fontStyle=1;fillColor=#b0e3e6;" parent="1" vertex="1">
          <mxGeometry x="320" y="120" width="120" height="40" as="geometry" />
        </mxCell>
        <mxCell id="LN4HBpjvQmvwsWO2YL0V-24" style="edgeStyle=orthogonalEdgeStyle;rounded=0;orthogonalLoop=1;jettySize=auto;html=1;exitX=1;exitY=0;exitDx=0;exitDy=0;entryX=0;entryY=0;entryDx=0;entryDy=0;" parent="1" source="LN4HBpjvQmvwsWO2YL0V-25" target="LN4HBpjvQmvwsWO2YL0V-5" edge="1">
          <mxGeometry relative="1" as="geometry">
            <Array as="points">
              <mxPoint x="870" y="160" />
              <mxPoint x="870" y="160" />
            </Array>
          </mxGeometry>
        </mxCell>
        <mxCell id="LN4HBpjvQmvwsWO2YL0V-25" value="Open Movies Report" style="rounded=0;whiteSpace=wrap;html=1;fillColor=#dae8fc;strokeColor=#6c8ebf;fontStyle=1" parent="1" vertex="1">
          <mxGeometry x="720" y="160" width="120" height="60" as="geometry" />
        </mxCell>
        <mxCell id="LN4HBpjvQmvwsWO2YL0V-26" value="Excel" style="rounded=0;whiteSpace=wrap;html=1;strokeColor=#0e8088;fontStyle=1;fillColor=#b0e3e6;" parent="1" vertex="1">
          <mxGeometry x="720" y="120" width="120" height="40" as="geometry" />
        </mxCell>
        <mxCell id="Rq_YrpFPcdzOt-2qeaRX-27" style="edgeStyle=orthogonalEdgeStyle;rounded=0;orthogonalLoop=1;jettySize=auto;html=1;exitX=1;exitY=0;exitDx=0;exitDy=0;entryX=0;entryY=0;entryDx=0;entryDy=0;" parent="1" source="Rq_YrpFPcdzOt-2qeaRX-28" target="Rq_YrpFPcdzOt-2qeaRX-31" edge="1">
          <mxGeometry relative="1" as="geometry">
            <Array as="points">
              <mxPoint x="2250" y="160" />
              <mxPoint x="2250" y="160" />
            </Array>
          </mxGeometry>
        </mxCell>
        <mxCell id="Rq_YrpFPcdzOt-2qeaRX-28" value="Click &quot;Sign In&quot;" style="rounded=0;whiteSpace=wrap;html=1;fillColor=#dae8fc;strokeColor=#6c8ebf;fontStyle=1" parent="1" vertex="1">
          <mxGeometry x="2080" y="160" width="120" height="60" as="geometry" />
        </mxCell>
        <mxCell id="Rq_YrpFPcdzOt-2qeaRX-29" value="imdb.com" style="rounded=0;whiteSpace=wrap;html=1;strokeColor=#0e8088;fontStyle=1;fillColor=#b0e3e6;" parent="1" vertex="1">
          <mxGeometry x="2080" y="120" width="120" height="40" as="geometry" />
        </mxCell>
        <mxCell id="Rq_YrpFPcdzOt-2qeaRX-30" style="edgeStyle=orthogonalEdgeStyle;rounded=0;orthogonalLoop=1;jettySize=auto;html=1;exitX=1;exitY=0;exitDx=0;exitDy=0;entryX=0;entryY=1;entryDx=0;entryDy=0;" parent="1" source="Rq_YrpFPcdzOt-2qeaRX-31" target="Rq_YrpFPcdzOt-2qeaRX-36" edge="1">
          <mxGeometry relative="1" as="geometry">
            <Array as="points">
              <mxPoint x="2420" y="160" />
              <mxPoint x="2420" y="160" />
            </Array>
          </mxGeometry>
        </mxCell>
        <mxCell id="Rq_YrpFPcdzOt-2qeaRX-31" value="Click &quot;Sign in with IMDb&quot;" style="rounded=0;whiteSpace=wrap;html=1;fillColor=#dae8fc;strokeColor=#6c8ebf;fontStyle=1" parent="1" vertex="1">
          <mxGeometry x="2280" y="160" width="120" height="60" as="geometry" />
        </mxCell>
        <mxCell id="Rq_YrpFPcdzOt-2qeaRX-32" value="imdb.com" style="rounded=0;whiteSpace=wrap;html=1;strokeColor=#0e8088;fontStyle=1;fillColor=#b0e3e6;" parent="1" vertex="1">
          <mxGeometry x="2280" y="120" width="120" height="40" as="geometry" />
        </mxCell>
        <mxCell id="Rq_YrpFPcdzOt-2qeaRX-33" value="Type into &quot;Email or mobile phone number&quot;" style="rounded=0;whiteSpace=wrap;html=1;fillColor=#dae8fc;strokeColor=#6c8ebf;fontStyle=1" parent="1" vertex="1">
          <mxGeometry x="2480" y="160" width="120" height="60" as="geometry" />
        </mxCell>
        <mxCell id="Rq_YrpFPcdzOt-2qeaRX-34" value="Input: Email" style="rounded=0;whiteSpace=wrap;html=1;fillColor=#d5e8d4;strokeColor=#82b366;fontStyle=1" parent="1" vertex="1">
          <mxGeometry x="2480" y="220" width="120" height="40" as="geometry" />
        </mxCell>
        <mxCell id="Rq_YrpFPcdzOt-2qeaRX-35" style="edgeStyle=orthogonalEdgeStyle;rounded=0;orthogonalLoop=1;jettySize=auto;html=1;exitX=1;exitY=1;exitDx=0;exitDy=0;entryX=0;entryY=0;entryDx=0;entryDy=0;" parent="1" source="Rq_YrpFPcdzOt-2qeaRX-36" target="Rq_YrpFPcdzOt-2qeaRX-37" edge="1">
          <mxGeometry relative="1" as="geometry">
            <Array as="points">
              <mxPoint x="2620" y="160" />
              <mxPoint x="2620" y="160" />
            </Array>
          </mxGeometry>
        </mxCell>
        <mxCell id="Rq_YrpFPcdzOt-2qeaRX-36" value="imdb.com" style="rounded=0;whiteSpace=wrap;html=1;strokeColor=#0e8088;fontStyle=1;fillColor=#b0e3e6;" parent="1" vertex="1">
          <mxGeometry x="2480" y="120" width="120" height="40" as="geometry" />
        </mxCell>
        <mxCell id="Rq_YrpFPcdzOt-2qeaRX-37" value="Type into &quot;Password&quot;" style="rounded=0;whiteSpace=wrap;html=1;fillColor=#dae8fc;strokeColor=#6c8ebf;fontStyle=1" parent="1" vertex="1">
          <mxGeometry x="2680" y="160" width="120" height="60" as="geometry" />
        </mxCell>
        <mxCell id="Rq_YrpFPcdzOt-2qeaRX-38" value="Input: Password" style="rounded=0;whiteSpace=wrap;html=1;fillColor=#d5e8d4;strokeColor=#82b366;fontStyle=1" parent="1" vertex="1">
          <mxGeometry x="2680" y="220" width="120" height="40" as="geometry" />
        </mxCell>
        <mxCell id="Rq_YrpFPcdzOt-2qeaRX-39" style="edgeStyle=orthogonalEdgeStyle;rounded=0;orthogonalLoop=1;jettySize=auto;html=1;exitX=1;exitY=1;exitDx=0;exitDy=0;entryX=0;entryY=1;entryDx=0;entryDy=0;" parent="1" edge="1">
          <mxGeometry relative="1" as="geometry">
            <mxPoint x="2800" y="159.33000000000004" as="sourcePoint" />
            <mxPoint x="2880" y="159.33000000000004" as="targetPoint" />
          </mxGeometry>
        </mxCell>
        <mxCell id="Rq_YrpFPcdzOt-2qeaRX-40" value="imdb.com" style="rounded=0;whiteSpace=wrap;html=1;strokeColor=#0e8088;fontStyle=1;fillColor=#b0e3e6;" parent="1" vertex="1">
          <mxGeometry x="2680" y="120" width="120" height="40" as="geometry" />
        </mxCell>
        <mxCell id="Rq_YrpFPcdzOt-2qeaRX-41" value="Click &quot;Sign in&quot;" style="rounded=0;whiteSpace=wrap;html=1;fillColor=#dae8fc;strokeColor=#6c8ebf;fontStyle=1" parent="1" vertex="1">
          <mxGeometry x="2880" y="160" width="120" height="60" as="geometry" />
        </mxCell>
        <mxCell id="Rq_YrpFPcdzOt-2qeaRX-42" style="edgeStyle=orthogonalEdgeStyle;rounded=0;orthogonalLoop=1;jettySize=auto;html=1;exitX=1;exitY=1;exitDx=0;exitDy=0;" parent="1" source="Rq_YrpFPcdzOt-2qeaRX-43" edge="1">
          <mxGeometry relative="1" as="geometry">
            <Array as="points">
              <mxPoint x="3020" y="160" />
              <mxPoint x="3020" y="160" />
            </Array>
            <mxPoint x="3080" y="160" as="targetPoint" />
          </mxGeometry>
        </mxCell>
        <mxCell id="Rq_YrpFPcdzOt-2qeaRX-43" value="imdb.com" style="rounded=0;whiteSpace=wrap;html=1;strokeColor=#0e8088;fontStyle=1;fillColor=#b0e3e6;" parent="1" vertex="1">
          <mxGeometry x="2880" y="120" width="120" height="40" as="geometry" />
        </mxCell>
        <UserObject label="End" link="data:page/id,BvF6bPhrFpZWPiVaxX6X" id="Rq_YrpFPcdzOt-2qeaRX-46">
          <mxCell style="ellipse;whiteSpace=wrap;html=1;aspect=fixed;fillColor=#fff2cc;strokeColor=#d6b656;fontStyle=1" parent="1" vertex="1">
            <mxGeometry x="3080" y="120" width="80" height="80" as="geometry" />
          </mxCell>
        </UserObject>
        <mxCell id="TEDaoVZ1_Fnj-Tw82XiW-2" style="edgeStyle=orthogonalEdgeStyle;rounded=0;orthogonalLoop=1;jettySize=auto;html=1;exitX=1;exitY=0.5;exitDx=0;exitDy=0;entryX=0;entryY=0;entryDx=0;entryDy=0;" parent="1" source="TEDaoVZ1_Fnj-Tw82XiW-1" target="Rq_YrpFPcdzOt-2qeaRX-28" edge="1">
          <mxGeometry relative="1" as="geometry">
            <Array as="points">
              <mxPoint x="2060" y="160" />
              <mxPoint x="2060" y="160" />
            </Array>
          </mxGeometry>
        </mxCell>
        <mxCell id="TEDaoVZ1_Fnj-Tw82XiW-3" value="No" style="edgeLabel;html=1;align=center;verticalAlign=middle;resizable=0;points=[];" parent="TEDaoVZ1_Fnj-Tw82XiW-2" vertex="1" connectable="0">
          <mxGeometry x="0.3625" y="1" relative="1" as="geometry">
            <mxPoint x="-15" y="1" as="offset" />
          </mxGeometry>
        </mxCell>
        <mxCell id="TEDaoVZ1_Fnj-Tw82XiW-5" style="edgeStyle=orthogonalEdgeStyle;rounded=0;orthogonalLoop=1;jettySize=auto;html=1;exitX=0.5;exitY=1;exitDx=0;exitDy=0;" parent="1" source="TEDaoVZ1_Fnj-Tw82XiW-1" target="TEDaoVZ1_Fnj-Tw82XiW-4" edge="1">
          <mxGeometry relative="1" as="geometry" />
        </mxCell>
        <mxCell id="TEDaoVZ1_Fnj-Tw82XiW-6" value="Yes" style="edgeLabel;html=1;align=center;verticalAlign=middle;resizable=0;points=[];" parent="TEDaoVZ1_Fnj-Tw82XiW-5" vertex="1" connectable="0">
          <mxGeometry x="0.0062" y="1" relative="1" as="geometry">
            <mxPoint as="offset" />
          </mxGeometry>
        </mxCell>
        <mxCell id="TEDaoVZ1_Fnj-Tw82XiW-1" value="Are we signed in?" style="rhombus;whiteSpace=wrap;html=1;fillColor=#ffe6cc;strokeColor=#d79b00;fontStyle=1" parent="1" vertex="1">
          <mxGeometry x="1920" y="120" width="80" height="80" as="geometry" />
        </mxCell>
        <UserObject label="End" link="data:page/id,BvF6bPhrFpZWPiVaxX6X" id="TEDaoVZ1_Fnj-Tw82XiW-4">
          <mxCell style="ellipse;whiteSpace=wrap;html=1;aspect=fixed;fillColor=#fff2cc;strokeColor=#d6b656;fontStyle=1" parent="1" vertex="1">
            <mxGeometry x="1920" y="280" width="80" height="80" as="geometry" />
          </mxCell>
        </UserObject>
      </root>
    </mxGraphModel>
  </diagram>
  <diagram id="BvF6bPhrFpZWPiVaxX6X" name="Rate movies">
    <mxGraphModel dx="2933" dy="1212" grid="1" gridSize="10" guides="1" tooltips="1" connect="1" arrows="1" fold="1" page="1" pageScale="1" pageWidth="850" pageHeight="1100" math="0" shadow="0">
      <root>
        <mxCell id="0" />
        <mxCell id="1" parent="0" />
        <mxCell id="qmqQE98uZnV0-zSBJQVk-1" value="Click on search bar&lt;div&gt;&lt;br&gt;&lt;/div&gt;" style="rounded=0;whiteSpace=wrap;html=1;fillColor=#dae8fc;strokeColor=#6c8ebf;fontStyle=1" parent="1" vertex="1">
          <mxGeometry x="240" y="160" width="120" height="60" as="geometry" />
        </mxCell>
        <mxCell id="qmqQE98uZnV0-zSBJQVk-2" style="edgeStyle=orthogonalEdgeStyle;rounded=0;orthogonalLoop=1;jettySize=auto;html=1;exitX=1;exitY=1;exitDx=0;exitDy=0;entryX=0;entryY=1;entryDx=0;entryDy=0;" parent="1" source="qmqQE98uZnV0-zSBJQVk-3" target="qmqQE98uZnV0-zSBJQVk-7" edge="1">
          <mxGeometry relative="1" as="geometry">
            <Array as="points">
              <mxPoint x="410" y="160" />
              <mxPoint x="410" y="160" />
            </Array>
          </mxGeometry>
        </mxCell>
        <mxCell id="qmqQE98uZnV0-zSBJQVk-3" value="imdb.com" style="rounded=0;whiteSpace=wrap;html=1;strokeColor=#0e8088;fontStyle=1;fillColor=#b0e3e6;" parent="1" vertex="1">
          <mxGeometry x="240" y="120" width="120" height="40" as="geometry" />
        </mxCell>
        <mxCell id="qmqQE98uZnV0-zSBJQVk-4" value="Type into search bar" style="rounded=0;whiteSpace=wrap;html=1;fillColor=#dae8fc;strokeColor=#6c8ebf;fontStyle=1" parent="1" vertex="1">
          <mxGeometry x="440" y="160" width="120" height="60" as="geometry" />
        </mxCell>
        <mxCell id="qmqQE98uZnV0-zSBJQVk-5" value="Input: CurrentMovie" style="rounded=0;whiteSpace=wrap;html=1;fillColor=#d5e8d4;strokeColor=#82b366;fontStyle=1" parent="1" vertex="1">
          <mxGeometry x="440" y="220" width="120" height="40" as="geometry" />
        </mxCell>
        <mxCell id="qmqQE98uZnV0-zSBJQVk-6" style="edgeStyle=orthogonalEdgeStyle;rounded=0;orthogonalLoop=1;jettySize=auto;html=1;exitX=1;exitY=1;exitDx=0;exitDy=0;entryX=0;entryY=1;entryDx=0;entryDy=0;" parent="1" source="qmqQE98uZnV0-zSBJQVk-7" target="qmqQE98uZnV0-zSBJQVk-10" edge="1">
          <mxGeometry relative="1" as="geometry">
            <Array as="points">
              <mxPoint x="610" y="160" />
              <mxPoint x="610" y="160" />
            </Array>
          </mxGeometry>
        </mxCell>
        <mxCell id="qmqQE98uZnV0-zSBJQVk-7" value="imdb.com" style="rounded=0;whiteSpace=wrap;html=1;strokeColor=#0e8088;fontStyle=1;fillColor=#b0e3e6;" parent="1" vertex="1">
          <mxGeometry x="440" y="120" width="120" height="40" as="geometry" />
        </mxCell>
        <mxCell id="qmqQE98uZnV0-zSBJQVk-8" value="Press Enter" style="rounded=0;whiteSpace=wrap;html=1;fillColor=#dae8fc;strokeColor=#6c8ebf;fontStyle=1" parent="1" vertex="1">
          <mxGeometry x="640" y="160" width="120" height="60" as="geometry" />
        </mxCell>
        <mxCell id="qmqQE98uZnV0-zSBJQVk-9" style="edgeStyle=orthogonalEdgeStyle;rounded=0;orthogonalLoop=1;jettySize=auto;html=1;exitX=1;exitY=1;exitDx=0;exitDy=0;" parent="1" source="qmqQE98uZnV0-zSBJQVk-10" target="qmqQE98uZnV0-zSBJQVk-18" edge="1">
          <mxGeometry relative="1" as="geometry">
            <Array as="points">
              <mxPoint x="790" y="160" />
              <mxPoint x="790" y="160" />
            </Array>
          </mxGeometry>
        </mxCell>
        <mxCell id="qmqQE98uZnV0-zSBJQVk-10" value="imdb.com" style="rounded=0;whiteSpace=wrap;html=1;strokeColor=#0e8088;fontStyle=1;fillColor=#b0e3e6;" parent="1" vertex="1">
          <mxGeometry x="640" y="120" width="120" height="40" as="geometry" />
        </mxCell>
        <mxCell id="qmqQE98uZnV0-zSBJQVk-11" style="edgeStyle=orthogonalEdgeStyle;rounded=0;orthogonalLoop=1;jettySize=auto;html=1;exitX=1;exitY=0;exitDx=0;exitDy=0;" parent="1" source="qmqQE98uZnV0-zSBJQVk-12" target="qmqQE98uZnV0-zSBJQVk-33" edge="1">
          <mxGeometry relative="1" as="geometry">
            <Array as="points">
              <mxPoint x="1150" y="160" />
              <mxPoint x="1150" y="160" />
            </Array>
          </mxGeometry>
        </mxCell>
        <mxCell id="qmqQE98uZnV0-zSBJQVk-12" value="Click on movie title" style="rounded=0;whiteSpace=wrap;html=1;fillColor=#dae8fc;strokeColor=#6c8ebf;fontStyle=1" parent="1" vertex="1">
          <mxGeometry x="1000" y="160" width="120" height="60" as="geometry" />
        </mxCell>
        <mxCell id="qmqQE98uZnV0-zSBJQVk-13" value="imdb.com" style="rounded=0;whiteSpace=wrap;html=1;strokeColor=#0e8088;fontStyle=1;fillColor=#b0e3e6;" parent="1" vertex="1">
          <mxGeometry x="1000" y="120" width="120" height="40" as="geometry" />
        </mxCell>
        <mxCell id="qmqQE98uZnV0-zSBJQVk-14" style="edgeStyle=orthogonalEdgeStyle;rounded=0;orthogonalLoop=1;jettySize=auto;html=1;exitX=1;exitY=0.5;exitDx=0;exitDy=0;entryX=0;entryY=1;entryDx=0;entryDy=0;" parent="1" source="qmqQE98uZnV0-zSBJQVk-18" target="qmqQE98uZnV0-zSBJQVk-13" edge="1">
          <mxGeometry relative="1" as="geometry">
            <Array as="points">
              <mxPoint x="980" y="160" />
              <mxPoint x="980" y="160" />
            </Array>
          </mxGeometry>
        </mxCell>
        <mxCell id="qmqQE98uZnV0-zSBJQVk-15" value="Yes&lt;div&gt;&lt;br&gt;&lt;/div&gt;" style="edgeLabel;html=1;align=center;verticalAlign=middle;resizable=0;points=[];" parent="qmqQE98uZnV0-zSBJQVk-14" vertex="1" connectable="0">
          <mxGeometry x="-0.1071" relative="1" as="geometry">
            <mxPoint as="offset" />
          </mxGeometry>
        </mxCell>
        <mxCell id="qmqQE98uZnV0-zSBJQVk-16" style="edgeStyle=orthogonalEdgeStyle;rounded=0;orthogonalLoop=1;jettySize=auto;html=1;exitX=0.5;exitY=1;exitDx=0;exitDy=0;entryX=0.5;entryY=0;entryDx=0;entryDy=0;" parent="1" source="qmqQE98uZnV0-zSBJQVk-18" target="qmqQE98uZnV0-zSBJQVk-43" edge="1">
          <mxGeometry relative="1" as="geometry" />
        </mxCell>
        <mxCell id="qmqQE98uZnV0-zSBJQVk-17" value="No" style="edgeLabel;html=1;align=center;verticalAlign=middle;resizable=0;points=[];" parent="qmqQE98uZnV0-zSBJQVk-16" vertex="1" connectable="0">
          <mxGeometry x="-0.0292" y="-1" relative="1" as="geometry">
            <mxPoint as="offset" />
          </mxGeometry>
        </mxCell>
        <mxCell id="qmqQE98uZnV0-zSBJQVk-18" value="Movie exists?" style="rhombus;whiteSpace=wrap;html=1;fillColor=#ffe6cc;strokeColor=#d79b00;fontStyle=1" parent="1" vertex="1">
          <mxGeometry x="840" y="120" width="80" height="80" as="geometry" />
        </mxCell>
        <mxCell id="qmqQE98uZnV0-zSBJQVk-19" value="BE001: Movie not found!" style="rounded=0;whiteSpace=wrap;html=1;fillColor=#f8cecc;strokeColor=#b85450;fontStyle=1" parent="1" vertex="1">
          <mxGeometry x="820" y="480" width="120" height="60" as="geometry" />
        </mxCell>
        <mxCell id="vzT8DqlSO42l7tOY8_lJ-5" style="edgeStyle=orthogonalEdgeStyle;rounded=0;orthogonalLoop=1;jettySize=auto;html=1;exitX=1;exitY=0;exitDx=0;exitDy=0;entryX=0;entryY=1;entryDx=0;entryDy=0;" edge="1" parent="1" source="qmqQE98uZnV0-zSBJQVk-20" target="vzT8DqlSO42l7tOY8_lJ-4">
          <mxGeometry relative="1" as="geometry">
            <Array as="points">
              <mxPoint x="1820" y="160" />
              <mxPoint x="1820" y="160" />
            </Array>
          </mxGeometry>
        </mxCell>
        <mxCell id="qmqQE98uZnV0-zSBJQVk-20" value="Click &quot;Rate&quot;" style="rounded=0;whiteSpace=wrap;html=1;fillColor=#dae8fc;strokeColor=#6c8ebf;fontStyle=1" parent="1" vertex="1">
          <mxGeometry x="1680" y="160" width="120" height="60" as="geometry" />
        </mxCell>
        <mxCell id="qmqQE98uZnV0-zSBJQVk-22" value="imdb.com" style="rounded=0;whiteSpace=wrap;html=1;strokeColor=#0e8088;fontStyle=1;fillColor=#b0e3e6;" parent="1" vertex="1">
          <mxGeometry x="1680" y="120" width="120" height="40" as="geometry" />
        </mxCell>
        <mxCell id="qmqQE98uZnV0-zSBJQVk-23" style="edgeStyle=orthogonalEdgeStyle;rounded=0;orthogonalLoop=1;jettySize=auto;html=1;exitX=1;exitY=0;exitDx=0;exitDy=0;entryX=0;entryY=1;entryDx=0;entryDy=0;" parent="1" source="qmqQE98uZnV0-zSBJQVk-24" target="qmqQE98uZnV0-zSBJQVk-28" edge="1">
          <mxGeometry relative="1" as="geometry">
            <Array as="points">
              <mxPoint x="2280" y="160" />
              <mxPoint x="2280" y="160" />
            </Array>
          </mxGeometry>
        </mxCell>
        <mxCell id="qmqQE98uZnV0-zSBJQVk-24" value="Rate movie" style="rounded=0;whiteSpace=wrap;html=1;fillColor=#dae8fc;strokeColor=#6c8ebf;fontStyle=1" parent="1" vertex="1">
          <mxGeometry x="2080" y="160" width="120" height="60" as="geometry" />
        </mxCell>
        <mxCell id="qmqQE98uZnV0-zSBJQVk-25" value="Input: Grade&amp;nbsp;" style="rounded=0;whiteSpace=wrap;html=1;fillColor=#d5e8d4;strokeColor=#82b366;fontStyle=1" parent="1" vertex="1">
          <mxGeometry x="2080" y="220" width="120" height="40" as="geometry" />
        </mxCell>
        <mxCell id="qmqQE98uZnV0-zSBJQVk-26" value="imdb.com" style="rounded=0;whiteSpace=wrap;html=1;strokeColor=#0e8088;fontStyle=1;fillColor=#b0e3e6;" parent="1" vertex="1">
          <mxGeometry x="2080" y="120" width="120" height="40" as="geometry" />
        </mxCell>
        <mxCell id="qmqQE98uZnV0-zSBJQVk-47" style="edgeStyle=orthogonalEdgeStyle;rounded=0;orthogonalLoop=1;jettySize=auto;html=1;exitX=1;exitY=0;exitDx=0;exitDy=0;" parent="1" source="qmqQE98uZnV0-zSBJQVk-27" target="qmqQE98uZnV0-zSBJQVk-46" edge="1">
          <mxGeometry relative="1" as="geometry">
            <Array as="points">
              <mxPoint x="2430" y="160" />
              <mxPoint x="2430" y="160" />
            </Array>
          </mxGeometry>
        </mxCell>
        <mxCell id="qmqQE98uZnV0-zSBJQVk-27" value="Click &quot;Rate&quot;" style="rounded=0;whiteSpace=wrap;html=1;fillColor=#dae8fc;strokeColor=#6c8ebf;fontStyle=1" parent="1" vertex="1">
          <mxGeometry x="2280" y="160" width="120" height="60" as="geometry" />
        </mxCell>
        <mxCell id="qmqQE98uZnV0-zSBJQVk-28" value="imdb.com" style="rounded=0;whiteSpace=wrap;html=1;strokeColor=#0e8088;fontStyle=1;fillColor=#b0e3e6;" parent="1" vertex="1">
          <mxGeometry x="2280" y="120" width="120" height="40" as="geometry" />
        </mxCell>
        <mxCell id="qmqQE98uZnV0-zSBJQVk-29" style="edgeStyle=orthogonalEdgeStyle;rounded=0;orthogonalLoop=1;jettySize=auto;html=1;exitX=1;exitY=0.5;exitDx=0;exitDy=0;entryX=0;entryY=1;entryDx=0;entryDy=0;" parent="1" source="qmqQE98uZnV0-zSBJQVk-33" target="qmqQE98uZnV0-zSBJQVk-22" edge="1">
          <mxGeometry relative="1" as="geometry">
            <Array as="points">
              <mxPoint x="1340" y="160" />
              <mxPoint x="1340" y="160" />
            </Array>
          </mxGeometry>
        </mxCell>
        <mxCell id="qmqQE98uZnV0-zSBJQVk-30" value="No&lt;div&gt;&lt;br&gt;&lt;/div&gt;" style="edgeLabel;html=1;align=center;verticalAlign=middle;resizable=0;points=[];" parent="qmqQE98uZnV0-zSBJQVk-29" vertex="1" connectable="0">
          <mxGeometry x="0.0026" y="-2" relative="1" as="geometry">
            <mxPoint as="offset" />
          </mxGeometry>
        </mxCell>
        <mxCell id="qmqQE98uZnV0-zSBJQVk-31" style="edgeStyle=orthogonalEdgeStyle;rounded=0;orthogonalLoop=1;jettySize=auto;html=1;exitX=0.5;exitY=1;exitDx=0;exitDy=0;entryX=0;entryY=1;entryDx=0;entryDy=0;" parent="1" source="qmqQE98uZnV0-zSBJQVk-33" target="qmqQE98uZnV0-zSBJQVk-36" edge="1">
          <mxGeometry relative="1" as="geometry">
            <Array as="points">
              <mxPoint x="1240" y="320" />
            </Array>
          </mxGeometry>
        </mxCell>
        <mxCell id="qmqQE98uZnV0-zSBJQVk-32" value="Yes" style="edgeLabel;html=1;align=center;verticalAlign=middle;resizable=0;points=[];" parent="qmqQE98uZnV0-zSBJQVk-31" vertex="1" connectable="0">
          <mxGeometry x="0.0036" y="3" relative="1" as="geometry">
            <mxPoint as="offset" />
          </mxGeometry>
        </mxCell>
        <mxCell id="qmqQE98uZnV0-zSBJQVk-33" value="The movie has a rating already?" style="rhombus;whiteSpace=wrap;html=1;fillColor=#ffe6cc;strokeColor=#d79b00;fontStyle=1" parent="1" vertex="1">
          <mxGeometry x="1200" y="120" width="80" height="80" as="geometry" />
        </mxCell>
        <mxCell id="qmqQE98uZnV0-zSBJQVk-34" value="Click on &quot;Your rating&quot;" style="rounded=0;whiteSpace=wrap;html=1;fillColor=#dae8fc;strokeColor=#6c8ebf;fontStyle=1" parent="1" vertex="1">
          <mxGeometry x="1320" y="320" width="120" height="60" as="geometry" />
        </mxCell>
        <mxCell id="qmqQE98uZnV0-zSBJQVk-35" style="edgeStyle=orthogonalEdgeStyle;rounded=0;orthogonalLoop=1;jettySize=auto;html=1;exitX=1;exitY=1;exitDx=0;exitDy=0;entryX=0;entryY=1;entryDx=0;entryDy=0;" parent="1" source="qmqQE98uZnV0-zSBJQVk-36" target="qmqQE98uZnV0-zSBJQVk-39" edge="1">
          <mxGeometry relative="1" as="geometry">
            <Array as="points">
              <mxPoint x="1490" y="320" />
              <mxPoint x="1490" y="320" />
            </Array>
          </mxGeometry>
        </mxCell>
        <mxCell id="qmqQE98uZnV0-zSBJQVk-36" value="imdb.com" style="rounded=0;whiteSpace=wrap;html=1;strokeColor=#0e8088;fontStyle=1;fillColor=#b0e3e6;" parent="1" vertex="1">
          <mxGeometry x="1320" y="280" width="120" height="40" as="geometry" />
        </mxCell>
        <mxCell id="qmqQE98uZnV0-zSBJQVk-37" style="edgeStyle=orthogonalEdgeStyle;rounded=0;orthogonalLoop=1;jettySize=auto;html=1;exitX=1;exitY=0;exitDx=0;exitDy=0;entryX=0.5;entryY=1;entryDx=0;entryDy=0;" parent="1" source="qmqQE98uZnV0-zSBJQVk-38" target="qmqQE98uZnV0-zSBJQVk-20" edge="1">
          <mxGeometry relative="1" as="geometry">
            <Array as="points">
              <mxPoint x="1740" y="320" />
            </Array>
          </mxGeometry>
        </mxCell>
        <mxCell id="qmqQE98uZnV0-zSBJQVk-38" value="Click &quot;Remove rating&quot;" style="rounded=0;whiteSpace=wrap;html=1;fillColor=#dae8fc;strokeColor=#6c8ebf;fontStyle=1" parent="1" vertex="1">
          <mxGeometry x="1520" y="320" width="120" height="60" as="geometry" />
        </mxCell>
        <mxCell id="qmqQE98uZnV0-zSBJQVk-39" value="imdb.com" style="rounded=0;whiteSpace=wrap;html=1;strokeColor=#0e8088;fontStyle=1;fillColor=#b0e3e6;" parent="1" vertex="1">
          <mxGeometry x="1520" y="280" width="120" height="40" as="geometry" />
        </mxCell>
        <mxCell id="qmqQE98uZnV0-zSBJQVk-40" value="Type into &quot;BE&quot; column" style="rounded=0;whiteSpace=wrap;html=1;fillColor=#dae8fc;strokeColor=#6c8ebf;fontStyle=1" parent="1" vertex="1">
          <mxGeometry x="820" y="320" width="120" height="60" as="geometry" />
        </mxCell>
        <mxCell id="qmqQE98uZnV0-zSBJQVk-41" style="edgeStyle=orthogonalEdgeStyle;rounded=0;orthogonalLoop=1;jettySize=auto;html=1;exitX=0.5;exitY=1;exitDx=0;exitDy=0;entryX=0.5;entryY=0;entryDx=0;entryDy=0;" parent="1" source="qmqQE98uZnV0-zSBJQVk-42" target="qmqQE98uZnV0-zSBJQVk-19" edge="1">
          <mxGeometry relative="1" as="geometry" />
        </mxCell>
        <mxCell id="qmqQE98uZnV0-zSBJQVk-42" value="Input: &quot;Movie not found!&quot;" style="rounded=0;whiteSpace=wrap;html=1;fillColor=#d5e8d4;strokeColor=#82b366;fontStyle=1" parent="1" vertex="1">
          <mxGeometry x="820" y="380" width="120" height="40" as="geometry" />
        </mxCell>
        <mxCell id="qmqQE98uZnV0-zSBJQVk-43" value="Excel" style="rounded=0;whiteSpace=wrap;html=1;strokeColor=#0e8088;fontStyle=1;fillColor=#b0e3e6;" parent="1" vertex="1">
          <mxGeometry x="820" y="280" width="120" height="40" as="geometry" />
        </mxCell>
        <mxCell id="onXBILbN2r6VwaK-aOeP-3" style="edgeStyle=orthogonalEdgeStyle;rounded=0;orthogonalLoop=1;jettySize=auto;html=1;exitX=1;exitY=0.5;exitDx=0;exitDy=0;entryX=0;entryY=0;entryDx=0;entryDy=0;" edge="1" parent="1" source="qmqQE98uZnV0-zSBJQVk-44" target="onXBILbN2r6VwaK-aOeP-1">
          <mxGeometry relative="1" as="geometry">
            <Array as="points">
              <mxPoint x="20" y="160" />
              <mxPoint x="20" y="160" />
            </Array>
          </mxGeometry>
        </mxCell>
        <UserObject label="Start" link="data:page/id,XS9ekA64kMyvC5jUSYrC" id="qmqQE98uZnV0-zSBJQVk-44">
          <mxCell style="ellipse;whiteSpace=wrap;html=1;aspect=fixed;fontStyle=1;fillColor=#fff2cc;strokeColor=#d6b656;" parent="1" vertex="1">
            <mxGeometry x="-120" y="120" width="80" height="80" as="geometry" />
          </mxCell>
        </UserObject>
        <UserObject label="End" link="data:page/id,iJSQ8ep-ab462QueFnDs" id="qmqQE98uZnV0-zSBJQVk-46">
          <mxCell style="ellipse;whiteSpace=wrap;html=1;aspect=fixed;fillColor=#fff2cc;strokeColor=#d6b656;fontStyle=1" parent="1" vertex="1">
            <mxGeometry x="2480" y="120" width="80" height="80" as="geometry" />
          </mxCell>
        </UserObject>
        <mxCell id="onXBILbN2r6VwaK-aOeP-4" style="edgeStyle=orthogonalEdgeStyle;rounded=0;orthogonalLoop=1;jettySize=auto;html=1;exitX=1;exitY=0;exitDx=0;exitDy=0;entryX=0;entryY=0;entryDx=0;entryDy=0;" edge="1" parent="1" source="onXBILbN2r6VwaK-aOeP-1" target="qmqQE98uZnV0-zSBJQVk-1">
          <mxGeometry relative="1" as="geometry">
            <Array as="points">
              <mxPoint x="200" y="160" />
              <mxPoint x="200" y="160" />
            </Array>
          </mxGeometry>
        </mxCell>
        <mxCell id="onXBILbN2r6VwaK-aOeP-1" value="&lt;div&gt;Get current movie title from Input File&lt;/div&gt;" style="rounded=0;whiteSpace=wrap;html=1;fillColor=#dae8fc;strokeColor=#6c8ebf;fontStyle=1" vertex="1" parent="1">
          <mxGeometry x="40" y="160" width="120" height="60" as="geometry" />
        </mxCell>
        <mxCell id="onXBILbN2r6VwaK-aOeP-2" value="Excel" style="rounded=0;whiteSpace=wrap;html=1;strokeColor=#0e8088;fontStyle=1;fillColor=#b0e3e6;" vertex="1" parent="1">
          <mxGeometry x="40" y="120" width="120" height="40" as="geometry" />
        </mxCell>
        <mxCell id="vzT8DqlSO42l7tOY8_lJ-1" value="Output: CurrentMovie" style="rounded=0;whiteSpace=wrap;html=1;fillColor=#e1d5e7;strokeColor=#9673a6;fontStyle=1" vertex="1" parent="1">
          <mxGeometry x="40" y="220" width="120" height="40" as="geometry" />
        </mxCell>
        <mxCell id="vzT8DqlSO42l7tOY8_lJ-2" value="Output: Grade" style="rounded=0;whiteSpace=wrap;html=1;fillColor=#e1d5e7;strokeColor=#9673a6;fontStyle=1" vertex="1" parent="1">
          <mxGeometry x="1880" y="220" width="120" height="40" as="geometry" />
        </mxCell>
        <mxCell id="vzT8DqlSO42l7tOY8_lJ-6" style="edgeStyle=orthogonalEdgeStyle;rounded=0;orthogonalLoop=1;jettySize=auto;html=1;exitX=1;exitY=0;exitDx=0;exitDy=0;entryX=0;entryY=0;entryDx=0;entryDy=0;" edge="1" parent="1" source="vzT8DqlSO42l7tOY8_lJ-3" target="qmqQE98uZnV0-zSBJQVk-24">
          <mxGeometry relative="1" as="geometry">
            <Array as="points">
              <mxPoint x="2050" y="160" />
              <mxPoint x="2050" y="160" />
            </Array>
          </mxGeometry>
        </mxCell>
        <mxCell id="vzT8DqlSO42l7tOY8_lJ-3" value="Get current movie grade from Input Fiel" style="rounded=0;whiteSpace=wrap;html=1;fillColor=#dae8fc;strokeColor=#6c8ebf;fontStyle=1" vertex="1" parent="1">
          <mxGeometry x="1880" y="160" width="120" height="60" as="geometry" />
        </mxCell>
        <mxCell id="vzT8DqlSO42l7tOY8_lJ-4" value="Excel" style="rounded=0;whiteSpace=wrap;html=1;strokeColor=#0e8088;fontStyle=1;fillColor=#b0e3e6;" vertex="1" parent="1">
          <mxGeometry x="1880" y="120" width="120" height="40" as="geometry" />
        </mxCell>
      </root>
    </mxGraphModel>
  </diagram>
  <diagram id="iJSQ8ep-ab462QueFnDs" name="Get movies info">
    <mxGraphModel dx="2403" dy="1398" grid="1" gridSize="10" guides="1" tooltips="1" connect="1" arrows="1" fold="1" page="1" pageScale="1" pageWidth="850" pageHeight="1100" math="0" shadow="0">
      <root>
        <mxCell id="0" />
        <mxCell id="1" parent="0" />
        <mxCell id="eXE2r1Dyfm4XTBWAU-VB-1" style="edgeStyle=orthogonalEdgeStyle;rounded=0;orthogonalLoop=1;jettySize=auto;html=1;exitX=1;exitY=1;exitDx=0;exitDy=0;entryX=0;entryY=1;entryDx=0;entryDy=0;" parent="1" target="eXE2r1Dyfm4XTBWAU-VB-25" edge="1">
          <mxGeometry relative="1" as="geometry">
            <Array as="points">
              <mxPoint x="280" y="240" />
              <mxPoint x="280" y="240" />
            </Array>
            <mxPoint x="240" y="240" as="sourcePoint" />
          </mxGeometry>
        </mxCell>
        <mxCell id="eXE2r1Dyfm4XTBWAU-VB-2" style="edgeStyle=orthogonalEdgeStyle;rounded=0;orthogonalLoop=1;jettySize=auto;html=1;exitX=1;exitY=0;exitDx=0;exitDy=0;entryX=0;entryY=1;entryDx=0;entryDy=0;" parent="1" source="eXE2r1Dyfm4XTBWAU-VB-3" target="eXE2r1Dyfm4XTBWAU-VB-33" edge="1">
          <mxGeometry relative="1" as="geometry">
            <Array as="points">
              <mxPoint x="1300" y="240" />
              <mxPoint x="1300" y="240" />
            </Array>
          </mxGeometry>
        </mxCell>
        <mxCell id="eXE2r1Dyfm4XTBWAU-VB-3" value="Get directors&amp;nbsp;" style="rounded=0;whiteSpace=wrap;html=1;fillColor=#dae8fc;strokeColor=#6c8ebf;fontStyle=1" parent="1" vertex="1">
          <mxGeometry x="1120" y="240" width="120" height="60" as="geometry" />
        </mxCell>
        <mxCell id="eXE2r1Dyfm4XTBWAU-VB-4" value="Output: Directors" style="rounded=0;whiteSpace=wrap;html=1;fillColor=#e1d5e7;strokeColor=#9673a6;fontStyle=1" parent="1" vertex="1">
          <mxGeometry x="1120" y="300" width="120" height="40" as="geometry" />
        </mxCell>
        <mxCell id="eXE2r1Dyfm4XTBWAU-VB-5" value="imdb.com" style="rounded=0;whiteSpace=wrap;html=1;strokeColor=#0e8088;fontStyle=1;fillColor=#b0e3e6;" parent="1" vertex="1">
          <mxGeometry x="1120" y="200" width="120" height="40" as="geometry" />
        </mxCell>
        <mxCell id="eXE2r1Dyfm4XTBWAU-VB-6" style="edgeStyle=orthogonalEdgeStyle;rounded=0;orthogonalLoop=1;jettySize=auto;html=1;exitX=1;exitY=0;exitDx=0;exitDy=0;entryX=0;entryY=1;entryDx=0;entryDy=0;" parent="1" source="eXE2r1Dyfm4XTBWAU-VB-7" target="eXE2r1Dyfm4XTBWAU-VB-37" edge="1">
          <mxGeometry relative="1" as="geometry">
            <Array as="points">
              <mxPoint x="1670" y="240" />
              <mxPoint x="1670" y="240" />
            </Array>
          </mxGeometry>
        </mxCell>
        <mxCell id="eXE2r1Dyfm4XTBWAU-VB-7" value="Get writers&amp;nbsp;" style="rounded=0;whiteSpace=wrap;html=1;fillColor=#dae8fc;strokeColor=#6c8ebf;fontStyle=1" parent="1" vertex="1">
          <mxGeometry x="1520" y="240" width="120" height="60" as="geometry" />
        </mxCell>
        <mxCell id="eXE2r1Dyfm4XTBWAU-VB-8" value="Output: Writers" style="rounded=0;whiteSpace=wrap;html=1;fillColor=#e1d5e7;strokeColor=#9673a6;fontStyle=1" parent="1" vertex="1">
          <mxGeometry x="1520" y="300" width="120" height="40" as="geometry" />
        </mxCell>
        <mxCell id="eXE2r1Dyfm4XTBWAU-VB-9" value="imdb.com" style="rounded=0;whiteSpace=wrap;html=1;strokeColor=#0e8088;fontStyle=1;fillColor=#b0e3e6;" parent="1" vertex="1">
          <mxGeometry x="1520" y="200" width="120" height="40" as="geometry" />
        </mxCell>
        <mxCell id="eXE2r1Dyfm4XTBWAU-VB-10" value="Get stars" style="rounded=0;whiteSpace=wrap;html=1;fillColor=#dae8fc;strokeColor=#6c8ebf;fontStyle=1" parent="1" vertex="1">
          <mxGeometry x="1920" y="240" width="120" height="60" as="geometry" />
        </mxCell>
        <mxCell id="eXE2r1Dyfm4XTBWAU-VB-11" value="Output: Stars" style="rounded=0;whiteSpace=wrap;html=1;fillColor=#e1d5e7;strokeColor=#9673a6;fontStyle=1" parent="1" vertex="1">
          <mxGeometry x="1920" y="300" width="120" height="40" as="geometry" />
        </mxCell>
        <mxCell id="eXE2r1Dyfm4XTBWAU-VB-12" style="edgeStyle=orthogonalEdgeStyle;rounded=0;orthogonalLoop=1;jettySize=auto;html=1;exitX=1;exitY=1;exitDx=0;exitDy=0;entryX=0;entryY=0;entryDx=0;entryDy=0;" parent="1" source="eXE2r1Dyfm4XTBWAU-VB-13" target="eXE2r1Dyfm4XTBWAU-VB-38" edge="1">
          <mxGeometry relative="1" as="geometry">
            <Array as="points">
              <mxPoint x="2060" y="240" />
              <mxPoint x="2060" y="240" />
            </Array>
          </mxGeometry>
        </mxCell>
        <mxCell id="eXE2r1Dyfm4XTBWAU-VB-13" value="imdb.com" style="rounded=0;whiteSpace=wrap;html=1;strokeColor=#0e8088;fontStyle=1;fillColor=#b0e3e6;" parent="1" vertex="1">
          <mxGeometry x="1920" y="200" width="120" height="40" as="geometry" />
        </mxCell>
        <mxCell id="eXE2r1Dyfm4XTBWAU-VB-14" value="Type into &quot;Description&quot; column" style="rounded=0;whiteSpace=wrap;html=1;fillColor=#dae8fc;strokeColor=#6c8ebf;fontStyle=1" parent="1" vertex="1">
          <mxGeometry x="520" y="240" width="120" height="60" as="geometry" />
        </mxCell>
        <mxCell id="eXE2r1Dyfm4XTBWAU-VB-15" value="Input: Description" style="rounded=0;whiteSpace=wrap;html=1;fillColor=#d5e8d4;strokeColor=#82b366;fontStyle=1" parent="1" vertex="1">
          <mxGeometry x="520" y="300" width="120" height="40" as="geometry" />
        </mxCell>
        <mxCell id="eXE2r1Dyfm4XTBWAU-VB-16" style="edgeStyle=orthogonalEdgeStyle;rounded=0;orthogonalLoop=1;jettySize=auto;html=1;exitX=1;exitY=1;exitDx=0;exitDy=0;entryX=0;entryY=1;entryDx=0;entryDy=0;" parent="1" source="eXE2r1Dyfm4XTBWAU-VB-17" target="eXE2r1Dyfm4XTBWAU-VB-29" edge="1">
          <mxGeometry relative="1" as="geometry">
            <Array as="points">
              <mxPoint x="690" y="240" />
              <mxPoint x="690" y="240" />
            </Array>
          </mxGeometry>
        </mxCell>
        <mxCell id="eXE2r1Dyfm4XTBWAU-VB-17" value="Excel" style="rounded=0;whiteSpace=wrap;html=1;strokeColor=#0e8088;fontStyle=1;fillColor=#b0e3e6;" parent="1" vertex="1">
          <mxGeometry x="520" y="200" width="120" height="40" as="geometry" />
        </mxCell>
        <mxCell id="eXE2r1Dyfm4XTBWAU-VB-18" style="edgeStyle=orthogonalEdgeStyle;rounded=0;orthogonalLoop=1;jettySize=auto;html=1;exitX=1;exitY=0;exitDx=0;exitDy=0;entryX=0;entryY=1;entryDx=0;entryDy=0;" parent="1" source="eXE2r1Dyfm4XTBWAU-VB-19" target="eXE2r1Dyfm4XTBWAU-VB-5" edge="1">
          <mxGeometry relative="1" as="geometry">
            <Array as="points">
              <mxPoint x="1070" y="240" />
              <mxPoint x="1070" y="240" />
            </Array>
          </mxGeometry>
        </mxCell>
        <mxCell id="eXE2r1Dyfm4XTBWAU-VB-19" value="Type into &quot;Categories&quot; column" style="rounded=0;whiteSpace=wrap;html=1;fillColor=#dae8fc;strokeColor=#6c8ebf;fontStyle=1" parent="1" vertex="1">
          <mxGeometry x="920" y="240" width="120" height="60" as="geometry" />
        </mxCell>
        <mxCell id="eXE2r1Dyfm4XTBWAU-VB-20" value="Input: Categories" style="rounded=0;whiteSpace=wrap;html=1;fillColor=#d5e8d4;strokeColor=#82b366;fontStyle=1" parent="1" vertex="1">
          <mxGeometry x="920" y="300" width="120" height="40" as="geometry" />
        </mxCell>
        <mxCell id="eXE2r1Dyfm4XTBWAU-VB-21" value="Excel" style="rounded=0;whiteSpace=wrap;html=1;strokeColor=#0e8088;fontStyle=1;fillColor=#b0e3e6;" parent="1" vertex="1">
          <mxGeometry x="920" y="200" width="120" height="40" as="geometry" />
        </mxCell>
        <mxCell id="eXE2r1Dyfm4XTBWAU-VB-22" style="edgeStyle=orthogonalEdgeStyle;rounded=0;orthogonalLoop=1;jettySize=auto;html=1;exitX=1;exitY=0;exitDx=0;exitDy=0;entryX=0;entryY=1;entryDx=0;entryDy=0;" parent="1" source="eXE2r1Dyfm4XTBWAU-VB-23" target="eXE2r1Dyfm4XTBWAU-VB-17" edge="1">
          <mxGeometry relative="1" as="geometry">
            <Array as="points">
              <mxPoint x="470" y="240" />
              <mxPoint x="470" y="240" />
            </Array>
          </mxGeometry>
        </mxCell>
        <mxCell id="eXE2r1Dyfm4XTBWAU-VB-23" value="Get description" style="rounded=0;whiteSpace=wrap;html=1;fillColor=#dae8fc;strokeColor=#6c8ebf;fontStyle=1" parent="1" vertex="1">
          <mxGeometry x="320" y="240" width="120" height="60" as="geometry" />
        </mxCell>
        <mxCell id="eXE2r1Dyfm4XTBWAU-VB-24" value="Output: Description" style="rounded=0;whiteSpace=wrap;html=1;fillColor=#e1d5e7;strokeColor=#9673a6;fontStyle=1" parent="1" vertex="1">
          <mxGeometry x="320" y="300" width="120" height="40" as="geometry" />
        </mxCell>
        <mxCell id="eXE2r1Dyfm4XTBWAU-VB-25" value="imdb.com" style="rounded=0;whiteSpace=wrap;html=1;strokeColor=#0e8088;fontStyle=1;fillColor=#b0e3e6;" parent="1" vertex="1">
          <mxGeometry x="320" y="200" width="120" height="40" as="geometry" />
        </mxCell>
        <mxCell id="eXE2r1Dyfm4XTBWAU-VB-26" style="edgeStyle=orthogonalEdgeStyle;rounded=0;orthogonalLoop=1;jettySize=auto;html=1;exitX=1;exitY=0;exitDx=0;exitDy=0;entryX=0;entryY=0;entryDx=0;entryDy=0;" parent="1" source="eXE2r1Dyfm4XTBWAU-VB-27" target="eXE2r1Dyfm4XTBWAU-VB-19" edge="1">
          <mxGeometry relative="1" as="geometry">
            <Array as="points">
              <mxPoint x="910" y="240" />
              <mxPoint x="910" y="240" />
            </Array>
          </mxGeometry>
        </mxCell>
        <mxCell id="eXE2r1Dyfm4XTBWAU-VB-27" value="Get categories" style="rounded=0;whiteSpace=wrap;html=1;fillColor=#dae8fc;strokeColor=#6c8ebf;fontStyle=1" parent="1" vertex="1">
          <mxGeometry x="720" y="240" width="120" height="60" as="geometry" />
        </mxCell>
        <mxCell id="eXE2r1Dyfm4XTBWAU-VB-28" value="Output: Categories" style="rounded=0;whiteSpace=wrap;html=1;fillColor=#e1d5e7;strokeColor=#9673a6;fontStyle=1" parent="1" vertex="1">
          <mxGeometry x="720" y="300" width="120" height="40" as="geometry" />
        </mxCell>
        <mxCell id="eXE2r1Dyfm4XTBWAU-VB-29" value="imdb.com" style="rounded=0;whiteSpace=wrap;html=1;strokeColor=#0e8088;fontStyle=1;fillColor=#b0e3e6;" parent="1" vertex="1">
          <mxGeometry x="720" y="200" width="120" height="40" as="geometry" />
        </mxCell>
        <mxCell id="eXE2r1Dyfm4XTBWAU-VB-30" value="Type into &quot;Directors&quot; column" style="rounded=0;whiteSpace=wrap;html=1;fillColor=#dae8fc;strokeColor=#6c8ebf;fontStyle=1" parent="1" vertex="1">
          <mxGeometry x="1320" y="240" width="120" height="60" as="geometry" />
        </mxCell>
        <mxCell id="eXE2r1Dyfm4XTBWAU-VB-31" value="Input: Directors" style="rounded=0;whiteSpace=wrap;html=1;fillColor=#d5e8d4;strokeColor=#82b366;fontStyle=1" parent="1" vertex="1">
          <mxGeometry x="1320" y="300" width="120" height="40" as="geometry" />
        </mxCell>
        <mxCell id="eXE2r1Dyfm4XTBWAU-VB-32" style="edgeStyle=orthogonalEdgeStyle;rounded=0;orthogonalLoop=1;jettySize=auto;html=1;exitX=1;exitY=1;exitDx=0;exitDy=0;entryX=0;entryY=1;entryDx=0;entryDy=0;" parent="1" source="eXE2r1Dyfm4XTBWAU-VB-33" target="eXE2r1Dyfm4XTBWAU-VB-9" edge="1">
          <mxGeometry relative="1" as="geometry">
            <Array as="points">
              <mxPoint x="1480" y="240" />
              <mxPoint x="1480" y="240" />
            </Array>
          </mxGeometry>
        </mxCell>
        <mxCell id="eXE2r1Dyfm4XTBWAU-VB-33" value="Excel" style="rounded=0;whiteSpace=wrap;html=1;strokeColor=#0e8088;fontStyle=1;fillColor=#b0e3e6;" parent="1" vertex="1">
          <mxGeometry x="1320" y="200" width="120" height="40" as="geometry" />
        </mxCell>
        <mxCell id="eXE2r1Dyfm4XTBWAU-VB-34" value="Type into &quot;Writers&quot; column" style="rounded=0;whiteSpace=wrap;html=1;fillColor=#dae8fc;strokeColor=#6c8ebf;fontStyle=1" parent="1" vertex="1">
          <mxGeometry x="1720" y="240" width="120" height="60" as="geometry" />
        </mxCell>
        <mxCell id="eXE2r1Dyfm4XTBWAU-VB-35" value="Input: Writers" style="rounded=0;whiteSpace=wrap;html=1;fillColor=#d5e8d4;strokeColor=#82b366;fontStyle=1" parent="1" vertex="1">
          <mxGeometry x="1720" y="300" width="120" height="40" as="geometry" />
        </mxCell>
        <mxCell id="eXE2r1Dyfm4XTBWAU-VB-36" style="edgeStyle=orthogonalEdgeStyle;rounded=0;orthogonalLoop=1;jettySize=auto;html=1;exitX=1;exitY=1;exitDx=0;exitDy=0;entryX=0;entryY=1;entryDx=0;entryDy=0;" parent="1" source="eXE2r1Dyfm4XTBWAU-VB-37" target="eXE2r1Dyfm4XTBWAU-VB-13" edge="1">
          <mxGeometry relative="1" as="geometry">
            <Array as="points">
              <mxPoint x="1880" y="240" />
              <mxPoint x="1880" y="240" />
            </Array>
          </mxGeometry>
        </mxCell>
        <mxCell id="eXE2r1Dyfm4XTBWAU-VB-37" value="Excel" style="rounded=0;whiteSpace=wrap;html=1;strokeColor=#0e8088;fontStyle=1;fillColor=#b0e3e6;" parent="1" vertex="1">
          <mxGeometry x="1720" y="200" width="120" height="40" as="geometry" />
        </mxCell>
        <mxCell id="eXE2r1Dyfm4XTBWAU-VB-38" value="Type into &quot;Stars&quot; column" style="rounded=0;whiteSpace=wrap;html=1;fillColor=#dae8fc;strokeColor=#6c8ebf;fontStyle=1" parent="1" vertex="1">
          <mxGeometry x="2120" y="240" width="120" height="60" as="geometry" />
        </mxCell>
        <mxCell id="eXE2r1Dyfm4XTBWAU-VB-39" value="Input: Stars" style="rounded=0;whiteSpace=wrap;html=1;fillColor=#d5e8d4;strokeColor=#82b366;fontStyle=1" parent="1" vertex="1">
          <mxGeometry x="2120" y="300" width="120" height="40" as="geometry" />
        </mxCell>
        <mxCell id="eXE2r1Dyfm4XTBWAU-VB-40" style="edgeStyle=orthogonalEdgeStyle;rounded=0;orthogonalLoop=1;jettySize=auto;html=1;exitX=1;exitY=1;exitDx=0;exitDy=0;entryX=0;entryY=0.5;entryDx=0;entryDy=0;" parent="1" source="eXE2r1Dyfm4XTBWAU-VB-41" edge="1">
          <mxGeometry relative="1" as="geometry">
            <Array as="points">
              <mxPoint x="2260" y="240" />
              <mxPoint x="2260" y="240" />
            </Array>
            <mxPoint x="2320" y="240" as="targetPoint" />
          </mxGeometry>
        </mxCell>
        <mxCell id="eXE2r1Dyfm4XTBWAU-VB-41" value="Excel" style="rounded=0;whiteSpace=wrap;html=1;strokeColor=#0e8088;fontStyle=1;fillColor=#b0e3e6;" parent="1" vertex="1">
          <mxGeometry x="2120" y="200" width="120" height="40" as="geometry" />
        </mxCell>
        <UserObject label="Start" link="data:page/id,iJSQ8ep-ab462QueFnDs" id="eXE2r1Dyfm4XTBWAU-VB-42">
          <mxCell style="ellipse;whiteSpace=wrap;html=1;aspect=fixed;fontStyle=1;fillColor=#fff2cc;strokeColor=#d6b656;" parent="1" vertex="1">
            <mxGeometry x="160" y="200" width="80" height="80" as="geometry" />
          </mxCell>
        </UserObject>
        <UserObject label="End" link="data:page/id,xnbSBS5895ng7XGD9JNb" id="eXE2r1Dyfm4XTBWAU-VB-43">
          <mxCell style="ellipse;whiteSpace=wrap;html=1;aspect=fixed;fillColor=#fff2cc;strokeColor=#d6b656;fontStyle=1" parent="1" vertex="1">
            <mxGeometry x="2320" y="200" width="80" height="80" as="geometry" />
          </mxCell>
        </UserObject>
      </root>
    </mxGraphModel>
  </diagram>
  <diagram id="xnbSBS5895ng7XGD9JNb" name="Send mail">
    <mxGraphModel dx="1250" dy="727" grid="1" gridSize="10" guides="1" tooltips="1" connect="1" arrows="1" fold="1" page="1" pageScale="1" pageWidth="850" pageHeight="1100" math="0" shadow="0">
      <root>
        <mxCell id="0" />
        <mxCell id="1" parent="0" />
        <mxCell id="g9jGQb2VRDXKc4Nl5pio-1" style="edgeStyle=orthogonalEdgeStyle;rounded=0;orthogonalLoop=1;jettySize=auto;html=1;exitX=1;exitY=0;exitDx=0;exitDy=0;entryX=0;entryY=0;entryDx=0;entryDy=0;" parent="1" source="g9jGQb2VRDXKc4Nl5pio-2" target="g9jGQb2VRDXKc4Nl5pio-7" edge="1">
          <mxGeometry relative="1" as="geometry">
            <Array as="points">
              <mxPoint x="770" y="280" />
              <mxPoint x="770" y="280" />
            </Array>
          </mxGeometry>
        </mxCell>
        <mxCell id="g9jGQb2VRDXKc4Nl5pio-2" value="Open Mail" style="rounded=0;whiteSpace=wrap;html=1;fillColor=#dae8fc;strokeColor=#6c8ebf;fontStyle=1" parent="1" vertex="1">
          <mxGeometry x="600" y="280" width="120" height="60" as="geometry" />
        </mxCell>
        <mxCell id="g9jGQb2VRDXKc4Nl5pio-3" value="Mail" style="rounded=0;whiteSpace=wrap;html=1;strokeColor=#0e8088;fontStyle=1;fillColor=#b0e3e6;" parent="1" vertex="1">
          <mxGeometry x="600" y="240" width="120" height="40" as="geometry" />
        </mxCell>
        <mxCell id="w0H-HfSfTPJcoq6bX-4D-3" style="edgeStyle=orthogonalEdgeStyle;rounded=0;orthogonalLoop=1;jettySize=auto;html=1;exitX=1;exitY=0;exitDx=0;exitDy=0;entryX=0;entryY=0;entryDx=0;entryDy=0;" parent="1" source="g9jGQb2VRDXKc4Nl5pio-4" target="w0H-HfSfTPJcoq6bX-4D-1" edge="1">
          <mxGeometry relative="1" as="geometry">
            <Array as="points">
              <mxPoint x="360" y="280" />
              <mxPoint x="360" y="280" />
            </Array>
          </mxGeometry>
        </mxCell>
        <mxCell id="g9jGQb2VRDXKc4Nl5pio-4" value="Save Movies Report" style="rounded=0;whiteSpace=wrap;html=1;fillColor=#dae8fc;strokeColor=#6c8ebf;fontStyle=1" parent="1" vertex="1">
          <mxGeometry x="200" y="280" width="120" height="60" as="geometry" />
        </mxCell>
        <mxCell id="g9jGQb2VRDXKc4Nl5pio-6" value="Excel" style="rounded=0;whiteSpace=wrap;html=1;strokeColor=#0e8088;fontStyle=1;fillColor=#b0e3e6;" parent="1" vertex="1">
          <mxGeometry x="200" y="240" width="120" height="40" as="geometry" />
        </mxCell>
        <mxCell id="g9jGQb2VRDXKc4Nl5pio-7" value="Click &quot;New Mail&quot;" style="rounded=0;whiteSpace=wrap;html=1;fillColor=#dae8fc;strokeColor=#6c8ebf;fontStyle=1" parent="1" vertex="1">
          <mxGeometry x="800" y="280" width="120" height="60" as="geometry" />
        </mxCell>
        <mxCell id="g9jGQb2VRDXKc4Nl5pio-8" style="edgeStyle=orthogonalEdgeStyle;rounded=0;orthogonalLoop=1;jettySize=auto;html=1;exitX=1;exitY=1;exitDx=0;exitDy=0;entryX=0;entryY=0;entryDx=0;entryDy=0;" parent="1" source="g9jGQb2VRDXKc4Nl5pio-9" target="g9jGQb2VRDXKc4Nl5pio-10" edge="1">
          <mxGeometry relative="1" as="geometry">
            <Array as="points">
              <mxPoint x="940" y="280" />
              <mxPoint x="940" y="280" />
            </Array>
          </mxGeometry>
        </mxCell>
        <mxCell id="g9jGQb2VRDXKc4Nl5pio-9" value="Mail" style="rounded=0;whiteSpace=wrap;html=1;strokeColor=#0e8088;fontStyle=1;fillColor=#b0e3e6;" parent="1" vertex="1">
          <mxGeometry x="800" y="240" width="120" height="40" as="geometry" />
        </mxCell>
        <mxCell id="g9jGQb2VRDXKc4Nl5pio-10" value="Click &quot;To&quot;" style="rounded=0;whiteSpace=wrap;html=1;fillColor=#dae8fc;strokeColor=#6c8ebf;fontStyle=1" parent="1" vertex="1">
          <mxGeometry x="1000" y="280" width="120" height="60" as="geometry" />
        </mxCell>
        <mxCell id="g9jGQb2VRDXKc4Nl5pio-11" style="edgeStyle=orthogonalEdgeStyle;rounded=0;orthogonalLoop=1;jettySize=auto;html=1;exitX=1;exitY=1;exitDx=0;exitDy=0;entryX=0;entryY=0;entryDx=0;entryDy=0;" parent="1" source="g9jGQb2VRDXKc4Nl5pio-12" target="g9jGQb2VRDXKc4Nl5pio-14" edge="1">
          <mxGeometry relative="1" as="geometry">
            <Array as="points">
              <mxPoint x="1150" y="280" />
              <mxPoint x="1150" y="280" />
            </Array>
          </mxGeometry>
        </mxCell>
        <mxCell id="g9jGQb2VRDXKc4Nl5pio-12" value="Mail" style="rounded=0;whiteSpace=wrap;html=1;strokeColor=#0e8088;fontStyle=1;fillColor=#b0e3e6;" parent="1" vertex="1">
          <mxGeometry x="1000" y="240" width="120" height="40" as="geometry" />
        </mxCell>
        <mxCell id="g9jGQb2VRDXKc4Nl5pio-13" style="edgeStyle=orthogonalEdgeStyle;rounded=0;orthogonalLoop=1;jettySize=auto;html=1;exitX=1;exitY=0;exitDx=0;exitDy=0;entryX=0;entryY=1;entryDx=0;entryDy=0;" parent="1" source="g9jGQb2VRDXKc4Nl5pio-14" target="g9jGQb2VRDXKc4Nl5pio-19" edge="1">
          <mxGeometry relative="1" as="geometry">
            <Array as="points">
              <mxPoint x="1350" y="280" />
              <mxPoint x="1350" y="280" />
            </Array>
          </mxGeometry>
        </mxCell>
        <mxCell id="g9jGQb2VRDXKc4Nl5pio-14" value="Type into&amp;nbsp;" style="rounded=0;whiteSpace=wrap;html=1;fillColor=#dae8fc;strokeColor=#6c8ebf;fontStyle=1" parent="1" vertex="1">
          <mxGeometry x="1200" y="280" width="120" height="60" as="geometry" />
        </mxCell>
        <mxCell id="g9jGQb2VRDXKc4Nl5pio-15" value="Input: EmailAdress" style="rounded=0;whiteSpace=wrap;html=1;fillColor=#d5e8d4;strokeColor=#82b366;fontStyle=1" parent="1" vertex="1">
          <mxGeometry x="1200" y="340" width="120" height="40" as="geometry" />
        </mxCell>
        <mxCell id="g9jGQb2VRDXKc4Nl5pio-16" value="Mail" style="rounded=0;whiteSpace=wrap;html=1;strokeColor=#0e8088;fontStyle=1;fillColor=#b0e3e6;" parent="1" vertex="1">
          <mxGeometry x="1200" y="240" width="120" height="40" as="geometry" />
        </mxCell>
        <mxCell id="g9jGQb2VRDXKc4Nl5pio-17" value="Click &quot;Subject&quot;" style="rounded=0;whiteSpace=wrap;html=1;fillColor=#dae8fc;strokeColor=#6c8ebf;fontStyle=1" parent="1" vertex="1">
          <mxGeometry x="1400" y="280" width="120" height="60" as="geometry" />
        </mxCell>
        <mxCell id="g9jGQb2VRDXKc4Nl5pio-18" style="edgeStyle=orthogonalEdgeStyle;rounded=0;orthogonalLoop=1;jettySize=auto;html=1;exitX=1;exitY=1;exitDx=0;exitDy=0;entryX=0;entryY=0;entryDx=0;entryDy=0;" parent="1" source="g9jGQb2VRDXKc4Nl5pio-19" target="g9jGQb2VRDXKc4Nl5pio-20" edge="1">
          <mxGeometry relative="1" as="geometry">
            <Array as="points">
              <mxPoint x="1550" y="280" />
              <mxPoint x="1550" y="280" />
            </Array>
          </mxGeometry>
        </mxCell>
        <mxCell id="g9jGQb2VRDXKc4Nl5pio-19" value="Mail" style="rounded=0;whiteSpace=wrap;html=1;strokeColor=#0e8088;fontStyle=1;fillColor=#b0e3e6;" parent="1" vertex="1">
          <mxGeometry x="1400" y="240" width="120" height="40" as="geometry" />
        </mxCell>
        <mxCell id="g9jGQb2VRDXKc4Nl5pio-20" value="Type into&amp;nbsp;" style="rounded=0;whiteSpace=wrap;html=1;fillColor=#dae8fc;strokeColor=#6c8ebf;fontStyle=1" parent="1" vertex="1">
          <mxGeometry x="1600" y="280" width="120" height="60" as="geometry" />
        </mxCell>
        <mxCell id="g9jGQb2VRDXKc4Nl5pio-21" value="Input: &quot;Movies Report&quot;" style="rounded=0;whiteSpace=wrap;html=1;fillColor=#d5e8d4;strokeColor=#82b366;fontStyle=1" parent="1" vertex="1">
          <mxGeometry x="1600" y="340" width="120" height="40" as="geometry" />
        </mxCell>
        <mxCell id="g9jGQb2VRDXKc4Nl5pio-22" value="Mail" style="rounded=0;whiteSpace=wrap;html=1;strokeColor=#0e8088;fontStyle=1;fillColor=#b0e3e6;" parent="1" vertex="1">
          <mxGeometry x="1600" y="240" width="120" height="40" as="geometry" />
        </mxCell>
        <mxCell id="g9jGQb2VRDXKc4Nl5pio-23" value="Click &quot;Attach File&quot;" style="rounded=0;whiteSpace=wrap;html=1;fillColor=#dae8fc;strokeColor=#6c8ebf;fontStyle=1" parent="1" vertex="1">
          <mxGeometry x="1800" y="280" width="120" height="60" as="geometry" />
        </mxCell>
        <mxCell id="g9jGQb2VRDXKc4Nl5pio-24" style="edgeStyle=orthogonalEdgeStyle;rounded=0;orthogonalLoop=1;jettySize=auto;html=1;exitX=1;exitY=1;exitDx=0;exitDy=0;entryX=0;entryY=0;entryDx=0;entryDy=0;" parent="1" source="g9jGQb2VRDXKc4Nl5pio-25" target="g9jGQb2VRDXKc4Nl5pio-28" edge="1">
          <mxGeometry relative="1" as="geometry">
            <Array as="points">
              <mxPoint x="1940" y="280" />
              <mxPoint x="1940" y="280" />
            </Array>
          </mxGeometry>
        </mxCell>
        <mxCell id="g9jGQb2VRDXKc4Nl5pio-25" value="Mail" style="rounded=0;whiteSpace=wrap;html=1;strokeColor=#0e8088;fontStyle=1;fillColor=#b0e3e6;" parent="1" vertex="1">
          <mxGeometry x="1800" y="240" width="120" height="40" as="geometry" />
        </mxCell>
        <mxCell id="g9jGQb2VRDXKc4Nl5pio-26" style="edgeStyle=orthogonalEdgeStyle;rounded=0;orthogonalLoop=1;jettySize=auto;html=1;exitX=1;exitY=0;exitDx=0;exitDy=0;entryX=0;entryY=1;entryDx=0;entryDy=0;" parent="1" source="g9jGQb2VRDXKc4Nl5pio-20" target="g9jGQb2VRDXKc4Nl5pio-25" edge="1">
          <mxGeometry relative="1" as="geometry">
            <mxPoint x="1790" y="280" as="targetPoint" />
            <Array as="points">
              <mxPoint x="1750" y="280" />
              <mxPoint x="1750" y="280" />
            </Array>
          </mxGeometry>
        </mxCell>
        <mxCell id="g9jGQb2VRDXKc4Nl5pio-27" style="edgeStyle=orthogonalEdgeStyle;rounded=0;orthogonalLoop=1;jettySize=auto;html=1;exitX=1;exitY=0;exitDx=0;exitDy=0;entryX=0;entryY=0;entryDx=0;entryDy=0;" parent="1" edge="1">
          <mxGeometry relative="1" as="geometry">
            <mxPoint x="2120" y="280" as="sourcePoint" />
            <mxPoint x="2200" y="280" as="targetPoint" />
          </mxGeometry>
        </mxCell>
        <mxCell id="g9jGQb2VRDXKc4Nl5pio-28" value="Select &quot;Movies Report&quot;" style="rounded=0;whiteSpace=wrap;html=1;fillColor=#dae8fc;strokeColor=#6c8ebf;fontStyle=1" parent="1" vertex="1">
          <mxGeometry x="2000" y="280" width="120" height="60" as="geometry" />
        </mxCell>
        <mxCell id="g9jGQb2VRDXKc4Nl5pio-29" value="Mail" style="rounded=0;whiteSpace=wrap;html=1;strokeColor=#0e8088;fontStyle=1;fillColor=#b0e3e6;" parent="1" vertex="1">
          <mxGeometry x="2000" y="240" width="120" height="40" as="geometry" />
        </mxCell>
        <mxCell id="g9jGQb2VRDXKc4Nl5pio-30" value="Click &quot;Send&quot;" style="rounded=0;whiteSpace=wrap;html=1;fillColor=#dae8fc;strokeColor=#6c8ebf;fontStyle=1" parent="1" vertex="1">
          <mxGeometry x="2400" y="280" width="120" height="60" as="geometry" />
        </mxCell>
        <mxCell id="g9jGQb2VRDXKc4Nl5pio-31" style="edgeStyle=orthogonalEdgeStyle;rounded=0;orthogonalLoop=1;jettySize=auto;html=1;exitX=1;exitY=1;exitDx=0;exitDy=0;entryX=0;entryY=0.5;entryDx=0;entryDy=0;" parent="1" source="g9jGQb2VRDXKc4Nl5pio-32" target="g9jGQb2VRDXKc4Nl5pio-33" edge="1">
          <mxGeometry relative="1" as="geometry">
            <Array as="points">
              <mxPoint x="2550" y="280" />
              <mxPoint x="2550" y="280" />
            </Array>
          </mxGeometry>
        </mxCell>
        <mxCell id="g9jGQb2VRDXKc4Nl5pio-32" value="Mail" style="rounded=0;whiteSpace=wrap;html=1;strokeColor=#0e8088;fontStyle=1;fillColor=#b0e3e6;" parent="1" vertex="1">
          <mxGeometry x="2400" y="240" width="120" height="40" as="geometry" />
        </mxCell>
        <UserObject label="End" link="data:page/id,yel6Xu-dW4zZ0-wbOYZ5" id="g9jGQb2VRDXKc4Nl5pio-33">
          <mxCell style="ellipse;whiteSpace=wrap;html=1;aspect=fixed;fillColor=#fff2cc;strokeColor=#d6b656;fontStyle=1" parent="1" vertex="1">
            <mxGeometry x="2600" y="240" width="80" height="80" as="geometry" />
          </mxCell>
        </UserObject>
        <mxCell id="g9jGQb2VRDXKc4Nl5pio-34" style="edgeStyle=orthogonalEdgeStyle;rounded=0;orthogonalLoop=1;jettySize=auto;html=1;exitX=1;exitY=0.5;exitDx=0;exitDy=0;entryX=0;entryY=1;entryDx=0;entryDy=0;" parent="1" edge="1">
          <mxGeometry relative="1" as="geometry">
            <mxPoint x="200" y="279.9999999999998" as="targetPoint" />
            <Array as="points">
              <mxPoint x="180" y="280" />
              <mxPoint x="180" y="280" />
            </Array>
            <mxPoint x="120" y="280" as="sourcePoint" />
          </mxGeometry>
        </mxCell>
        <mxCell id="g9jGQb2VRDXKc4Nl5pio-35" style="edgeStyle=orthogonalEdgeStyle;rounded=0;orthogonalLoop=1;jettySize=auto;html=1;exitX=1;exitY=0;exitDx=0;exitDy=0;entryX=0;entryY=0;entryDx=0;entryDy=0;" parent="1" source="g9jGQb2VRDXKc4Nl5pio-36" target="g9jGQb2VRDXKc4Nl5pio-30" edge="1">
          <mxGeometry relative="1" as="geometry">
            <Array as="points">
              <mxPoint x="2360" y="280" />
              <mxPoint x="2360" y="280" />
            </Array>
          </mxGeometry>
        </mxCell>
        <mxCell id="g9jGQb2VRDXKc4Nl5pio-36" value="Type into &quot;Body&quot;" style="rounded=0;whiteSpace=wrap;html=1;fillColor=#dae8fc;strokeColor=#6c8ebf;fontStyle=1" parent="1" vertex="1">
          <mxGeometry x="2200" y="280" width="120" height="60" as="geometry" />
        </mxCell>
        <mxCell id="g9jGQb2VRDXKc4Nl5pio-37" value="Mail" style="rounded=0;whiteSpace=wrap;html=1;strokeColor=#0e8088;fontStyle=1;fillColor=#b0e3e6;" parent="1" vertex="1">
          <mxGeometry x="2200" y="240" width="120" height="40" as="geometry" />
        </mxCell>
        <UserObject label="Start" link="data:page/id,iJSQ8ep-ab462QueFnDs" id="g9jGQb2VRDXKc4Nl5pio-38">
          <mxCell style="ellipse;whiteSpace=wrap;html=1;aspect=fixed;fontStyle=1;fillColor=#fff2cc;strokeColor=#d6b656;" parent="1" vertex="1">
            <mxGeometry x="40" y="240" width="80" height="80" as="geometry" />
          </mxCell>
        </UserObject>
        <mxCell id="fZXdfiwljSDoqPz4Iw0I-1" style="edgeStyle=orthogonalEdgeStyle;rounded=0;orthogonalLoop=1;jettySize=auto;html=1;exitX=1;exitY=0;exitDx=0;exitDy=0;entryX=0;entryY=1;entryDx=0;entryDy=0;" edge="1" parent="1" source="w0H-HfSfTPJcoq6bX-4D-1" target="g9jGQb2VRDXKc4Nl5pio-3">
          <mxGeometry relative="1" as="geometry">
            <mxPoint x="590" y="280" as="targetPoint" />
            <Array as="points">
              <mxPoint x="550" y="280" />
              <mxPoint x="550" y="280" />
            </Array>
          </mxGeometry>
        </mxCell>
        <mxCell id="w0H-HfSfTPJcoq6bX-4D-1" value="Close Movies&amp;nbsp;&lt;div&gt;Report&lt;/div&gt;" style="rounded=0;whiteSpace=wrap;html=1;fillColor=#dae8fc;strokeColor=#6c8ebf;fontStyle=1" parent="1" vertex="1">
          <mxGeometry x="400" y="280" width="120" height="60" as="geometry" />
        </mxCell>
        <mxCell id="w0H-HfSfTPJcoq6bX-4D-2" value="Excel" style="rounded=0;whiteSpace=wrap;html=1;strokeColor=#0e8088;fontStyle=1;fillColor=#b0e3e6;" parent="1" vertex="1">
          <mxGeometry x="400" y="240" width="120" height="40" as="geometry" />
        </mxCell>
        <mxCell id="kyoUkx1BvKNgp_6qmNnZ-1" value="Input: AditionalMessage" style="rounded=0;whiteSpace=wrap;html=1;fillColor=#d5e8d4;strokeColor=#82b366;fontStyle=1" vertex="1" parent="1">
          <mxGeometry x="2200" y="340" width="120" height="40" as="geometry" />
        </mxCell>
      </root>
    </mxGraphModel>
  </diagram>
  <diagram id="yel6Xu-dW4zZ0-wbOYZ5" name="Close application">
    <mxGraphModel dx="2803" dy="1136" grid="1" gridSize="10" guides="1" tooltips="1" connect="1" arrows="1" fold="1" page="1" pageScale="1" pageWidth="850" pageHeight="1100" math="0" shadow="0">
      <root>
        <mxCell id="0" />
        <mxCell id="1" parent="0" />
        <mxCell id="OCs14q12ASefrW0pq4Dp-14" style="edgeStyle=orthogonalEdgeStyle;rounded=0;orthogonalLoop=1;jettySize=auto;html=1;exitX=1;exitY=0.5;exitDx=0;exitDy=0;entryX=0;entryY=1;entryDx=0;entryDy=0;" parent="1" source="OCs14q12ASefrW0pq4Dp-1" target="OCs14q12ASefrW0pq4Dp-12" edge="1">
          <mxGeometry relative="1" as="geometry">
            <Array as="points">
              <mxPoint x="-10" y="200" />
              <mxPoint x="-10" y="200" />
            </Array>
          </mxGeometry>
        </mxCell>
        <UserObject label="Start" link="data:page/id,xnbSBS5895ng7XGD9JNb" id="OCs14q12ASefrW0pq4Dp-1">
          <mxCell style="ellipse;whiteSpace=wrap;html=1;aspect=fixed;fontStyle=1;fillColor=#fff2cc;strokeColor=#d6b656;" parent="1" vertex="1">
            <mxGeometry x="-160" y="160" width="80" height="80" as="geometry" />
          </mxCell>
        </UserObject>
        <mxCell id="OCs14q12ASefrW0pq4Dp-9" style="edgeStyle=orthogonalEdgeStyle;rounded=0;orthogonalLoop=1;jettySize=auto;html=1;exitX=1;exitY=0;exitDx=0;exitDy=0;entryX=0;entryY=1;entryDx=0;entryDy=0;" parent="1" source="OCs14q12ASefrW0pq4Dp-2" target="OCs14q12ASefrW0pq4Dp-7" edge="1">
          <mxGeometry relative="1" as="geometry">
            <Array as="points">
              <mxPoint x="340" y="200" />
              <mxPoint x="340" y="200" />
            </Array>
          </mxGeometry>
        </mxCell>
        <mxCell id="OCs14q12ASefrW0pq4Dp-2" value="Close Input File" style="rounded=0;whiteSpace=wrap;html=1;fillColor=#dae8fc;strokeColor=#6c8ebf;fontStyle=1" parent="1" vertex="1">
          <mxGeometry x="200" y="200" width="120" height="60" as="geometry" />
        </mxCell>
        <mxCell id="OCs14q12ASefrW0pq4Dp-3" value="Excel" style="rounded=0;whiteSpace=wrap;html=1;strokeColor=#0e8088;fontStyle=1;fillColor=#b0e3e6;" parent="1" vertex="1">
          <mxGeometry x="200" y="160" width="120" height="40" as="geometry" />
        </mxCell>
        <mxCell id="OCs14q12ASefrW0pq4Dp-6" value="Close Google" style="rounded=0;whiteSpace=wrap;html=1;fillColor=#dae8fc;strokeColor=#6c8ebf;fontStyle=1" parent="1" vertex="1">
          <mxGeometry x="400" y="200" width="120" height="60" as="geometry" />
        </mxCell>
        <mxCell id="OCs14q12ASefrW0pq4Dp-16" style="edgeStyle=orthogonalEdgeStyle;rounded=0;orthogonalLoop=1;jettySize=auto;html=1;exitX=1;exitY=1;exitDx=0;exitDy=0;" parent="1" source="OCs14q12ASefrW0pq4Dp-7" target="OCs14q12ASefrW0pq4Dp-15" edge="1">
          <mxGeometry relative="1" as="geometry">
            <Array as="points">
              <mxPoint x="540" y="200" />
              <mxPoint x="540" y="200" />
            </Array>
          </mxGeometry>
        </mxCell>
        <mxCell id="OCs14q12ASefrW0pq4Dp-7" value="Google Chrome" style="rounded=0;whiteSpace=wrap;html=1;strokeColor=#0e8088;fontStyle=1;fillColor=#b0e3e6;" parent="1" vertex="1">
          <mxGeometry x="400" y="160" width="120" height="40" as="geometry" />
        </mxCell>
        <mxCell id="OCs14q12ASefrW0pq4Dp-13" style="edgeStyle=orthogonalEdgeStyle;rounded=0;orthogonalLoop=1;jettySize=auto;html=1;exitX=1;exitY=0;exitDx=0;exitDy=0;entryX=0;entryY=1;entryDx=0;entryDy=0;" parent="1" source="OCs14q12ASefrW0pq4Dp-11" target="OCs14q12ASefrW0pq4Dp-3" edge="1">
          <mxGeometry relative="1" as="geometry">
            <Array as="points">
              <mxPoint x="150" y="200" />
              <mxPoint x="150" y="200" />
            </Array>
          </mxGeometry>
        </mxCell>
        <mxCell id="OCs14q12ASefrW0pq4Dp-11" value="Close Mail" style="rounded=0;whiteSpace=wrap;html=1;fillColor=#dae8fc;strokeColor=#6c8ebf;fontStyle=1" parent="1" vertex="1">
          <mxGeometry y="200" width="120" height="60" as="geometry" />
        </mxCell>
        <mxCell id="OCs14q12ASefrW0pq4Dp-12" value="Mail" style="rounded=0;whiteSpace=wrap;html=1;strokeColor=#0e8088;fontStyle=1;fillColor=#b0e3e6;" parent="1" vertex="1">
          <mxGeometry y="160" width="120" height="40" as="geometry" />
        </mxCell>
        <UserObject label="End" link="data:page/id,ewICvBA-AWRLPiirsOwP" id="OCs14q12ASefrW0pq4Dp-15">
          <mxCell style="ellipse;whiteSpace=wrap;html=1;aspect=fixed;fillColor=#fff2cc;strokeColor=#d6b656;fontStyle=1" parent="1" vertex="1">
            <mxGeometry x="600" y="160" width="80" height="80" as="geometry" />
          </mxCell>
        </UserObject>
      </root>
    </mxGraphModel>
  </diagram>
</mxfile>
